<svg width="30" height="31" viewBox="0 0 30 31" fill="none" xmlns="http://www.w3.org/2000/svg">
<path d="M20.2738 22.0332L19.6363 25.732C19.5539 26.0283 19.3798 26.291 19.1389 26.4822C18.898 26.6734 18.6027 26.7834 18.2954 26.7963C17.9881 26.8092 17.6846 26.7244 17.4285 26.5541C17.1724 26.3838 16.9769 26.1366 16.87 25.8482L13.385 15.9957C13.2896 15.7353 13.2705 15.453 13.3302 15.1822C13.3898 14.9113 13.5256 14.6631 13.7216 14.4669C13.9176 14.2706 14.1656 14.1345 14.4364 14.0745C14.7072 14.0145 14.9895 14.0331 15.25 14.1282L25.295 17.6132C25.5934 17.7162 25.8501 17.9134 26.0266 18.1751C26.2031 18.4368 26.2896 18.7488 26.2733 19.064C26.2569 19.3793 26.1385 19.6806 25.9359 19.9226C25.7333 20.1646 25.4574 20.3342 25.15 20.4057L21.26 21.0432C21.0257 21.112 20.8125 21.2386 20.6399 21.4114C20.4673 21.5842 20.341 21.7976 20.2725 22.032" stroke="white" stroke-width="1.5" stroke-linecap="round" stroke-linejoin="round"/>
<path d="M26.8774 12.283C26.2521 10.2888 25.1232 8.48952 23.5998 7.05876C22.0764 5.628 20.2099 4.61412 18.1804 4.11499C16.1509 3.61586 14.0271 3.64833 12.0138 4.20927C10.0006 4.77021 8.1659 5.84068 6.68693 7.31734C5.20797 8.794 4.13465 10.627 3.57057 12.6394C3.00649 14.6518 2.97071 16.7756 3.46668 18.8058C3.96265 20.836 4.97362 22.7042 6.402 24.2298C7.83039 25.7554 9.62794 26.8871 11.6212 27.5155" stroke="white" stroke-width="1.5" stroke-linecap="round"/>
</svg>
