<svg width="50" height="50" viewBox="0 0 50 50" fill="none" xmlns="http://www.w3.org/2000/svg">
<g clip-path="url(#clip0_37_413)">
<path d="M33.9937 0.881358L35.0812 4.22823C35.4185 5.24622 35.9892 6.1712 36.7478 6.92923C37.5064 7.68727 38.4318 8.25733 39.45 8.59386L42.8 9.68136L42.8656 9.70011C43.1238 9.79098 43.3473 9.95973 43.5055 10.1831C43.6636 10.4064 43.7486 10.6733 43.7486 10.947C43.7486 11.2206 43.6636 11.4876 43.5055 11.7109C43.3473 11.9342 43.1238 12.103 42.8656 12.1939L39.5187 13.2814C38.4999 13.6175 37.5739 14.1873 36.8148 14.9454C36.0556 15.7035 35.4844 16.6287 35.1469 17.647L34.0594 20.9907C33.9685 21.2489 33.7998 21.4724 33.5764 21.6306C33.3531 21.7887 33.0862 21.8737 32.8125 21.8737C32.5388 21.8737 32.2719 21.7887 32.0486 21.6306C31.8252 21.4724 31.6565 21.2489 31.5656 20.9907L30.4781 17.647C30.1431 16.6252 29.573 15.6962 28.8137 14.9348C28.0544 14.1733 27.1271 13.6006 26.1062 13.2626L22.7562 12.1751C22.4981 12.0842 22.2745 11.9155 22.1164 11.6922C21.9582 11.4688 21.8733 11.2019 21.8733 10.9282C21.8733 10.6546 21.9582 10.3877 22.1164 10.1643C22.2745 9.94098 22.4981 9.77223 22.7562 9.68136L26.1062 8.59386C27.1123 8.24865 28.0246 7.67471 28.7713 6.91718C29.518 6.15965 30.0787 5.2392 30.4094 4.22823L31.4969 0.884483C31.5871 0.62526 31.7557 0.400547 31.9795 0.241528C32.2032 0.0825083 32.4708 -0.00292969 32.7453 -0.00292969C33.0198 -0.00292969 33.2874 0.0825083 33.5112 0.241528C33.7349 0.400547 33.9035 0.622135 33.9937 0.881358ZM49.3219 25.6689L46.9312 24.8939C46.2037 24.6518 45.5426 24.2437 45.0002 23.7019C44.4578 23.16 44.049 22.4993 43.8062 21.772L43.0312 19.3845C42.9665 19.1999 42.8461 19.04 42.6865 18.9268C42.527 18.8137 42.3362 18.7529 42.1406 18.7529C41.945 18.7529 41.7543 18.8137 41.5947 18.9268C41.4352 19.04 41.3147 19.1999 41.25 19.3845L40.4687 21.772C40.2314 22.4936 39.8307 23.1507 39.2979 23.6922C38.7651 24.2336 38.1146 24.6449 37.3969 24.8939L35.0062 25.6689C34.8231 25.735 34.6647 25.856 34.5528 26.0154C34.4409 26.1747 34.3809 26.3647 34.3809 26.5595C34.3809 26.7542 34.4409 26.9442 34.5528 27.1036C34.6647 27.263 34.8231 27.384 35.0062 27.4501L37.3969 28.2282C38.1254 28.4712 38.7872 28.8807 39.3297 29.4243C39.8722 29.9679 40.2804 30.6305 40.5219 31.3595L41.2969 33.747C41.3616 33.9316 41.482 34.0915 41.6416 34.2046C41.8011 34.3178 41.9919 34.3786 42.1875 34.3786C42.3831 34.3786 42.5739 34.3178 42.7334 34.2046C42.893 34.0915 43.0134 33.9316 43.0781 33.747L43.8562 31.3595C44.0987 30.6325 44.507 29.972 45.0488 29.4302C45.5907 28.8883 46.2512 28.48 46.9781 28.2376L49.3687 27.4626C49.5519 27.3965 49.7103 27.2755 49.8222 27.1161C49.9341 26.9567 49.9941 26.7667 49.9941 26.572C49.9941 26.3772 49.9341 26.1872 49.8222 26.0279C49.7103 25.8685 49.5519 25.7475 49.3687 25.6814L49.3219 25.6689ZM40.625 37.1907C40.357 37.0818 40.1014 36.9446 39.8625 36.7814C39.175 36.2814 38.675 35.622 38.3625 34.8407L37.55 32.3345L37.5 32.2126V40.6251C37.5 41.4539 37.1708 42.2488 36.5847 42.8348C35.9987 43.4209 35.2038 43.7501 34.375 43.7501H15.625C14.7962 43.7501 14.0013 43.4209 13.4153 42.8348C12.8292 42.2488 12.5 41.4539 12.5 40.6251V9.37511C12.5 8.54631 12.8292 7.75145 13.4153 7.1654C14.0013 6.57935 14.7962 6.25011 15.625 6.25011H23.2187L25.1312 5.63448C25.6312 5.47823 26.1312 5.13448 26.5375 4.72823C26.9437 4.32198 27.2562 3.82198 27.4437 3.25948L27.4906 3.12511H15.625C13.9674 3.12511 12.3777 3.78359 11.2056 4.95569C10.0335 6.12779 9.375 7.7175 9.375 9.37511V40.6251C9.375 42.2827 10.0335 43.8724 11.2056 45.0445C12.3777 46.2166 13.9674 46.8751 15.625 46.8751H34.375C36.0326 46.8751 37.6223 46.2166 38.7944 45.0445C39.9665 43.8724 40.625 42.2827 40.625 40.6251V37.1907ZM29.9687 26.5314C30.3461 26.4551 30.682 26.2421 30.9121 25.9334C31.1421 25.6246 31.25 25.2418 31.2152 24.8584C31.1803 24.475 31.0051 24.1179 30.7232 23.8557C30.4413 23.5935 30.0724 23.4446 29.6875 23.4376H20.3125L20.0312 23.4626C19.647 23.5322 19.3028 23.7431 19.0663 24.0538C18.8298 24.3645 18.7182 24.7524 18.7535 25.1413C18.7888 25.5301 18.9684 25.8917 19.2569 26.1548C19.5455 26.4178 19.922 26.5633 20.3125 26.5626H29.6875L29.9687 26.5314ZM31.25 35.9064C31.2509 36.2726 31.123 36.6275 30.8888 36.9091C30.6547 37.1907 30.329 37.3811 29.9687 37.447L29.6875 37.472H20.3125C19.9249 37.4686 19.5524 37.3213 19.2674 37.0587C18.9823 36.7961 18.805 36.4369 18.77 36.0509C18.7349 35.6649 18.8446 35.2796 19.0777 34.9699C19.3108 34.6602 19.6506 34.4482 20.0312 34.3751L20.3125 34.3501H29.6875C30.1019 34.3501 30.4993 34.5147 30.7924 34.8078C31.0854 35.1008 31.25 35.4982 31.25 35.9126" fill="url(#paint0_linear_37_413)"/>
</g>
<defs>
<linearGradient id="paint0_linear_37_413" x1="29.6846" y1="-0.00292969" x2="29.6846" y2="46.8751" gradientUnits="userSpaceOnUse">
<stop stop-color="#00D1FF"/>
<stop offset="1" stop-color="#3898DE"/>
</linearGradient>
<clipPath id="clip0_37_413">
<rect width="50" height="50" fill="white"/>
</clipPath>
</defs>
</svg>
