<svg width="25" height="24" viewBox="0 0 25 24" fill="none" xmlns="http://www.w3.org/2000/svg">
<path d="M13 3C15.21 3 17 4.79 17 7C17 9.21 15.21 11 13 11C10.79 11 9 9.21 9 7C9 4.79 10.79 3 13 3ZM17 13.54C17 14.6 16.72 17.07 14.81 19.83L14 15L14.94 13.12C14.32 13.05 13.67 13 13 13C12.33 13 11.68 13.05 11.06 13.12L12 15L11.19 19.83C9.28 17.07 9 14.6 9 13.54C6.61 14.24 5 15.5 5 17V20C5 20 5.06006 21 5.78003 21C6.5 21 6.78003 21 6.78003 21H19.28C19.28 21 19.5601 21 20.28 21C21 21 21 20 21 20V17C21 15.5 19.4 14.24 17 13.54Z" fill="#505050"/>
</svg>
