<svg width="24" height="24" viewBox="0 0 24 24" fill="none" xmlns="http://www.w3.org/2000/svg">
<g clip-path="url(#clip0_6_366)">
<path fill-rule="evenodd" clip-rule="evenodd" d="M23.8381 4.14208C23.9624 4.33079 24.0178 4.55662 23.995 4.78144C23.9721 5.00626 23.8723 5.21629 23.7125 5.37607L11.6839 17.4045C11.5609 17.5275 11.4073 17.6155 11.2391 17.6597L6.229 18.9682C6.06339 19.0114 5.88936 19.0106 5.72419 18.9657C5.55902 18.9209 5.40845 18.8336 5.28743 18.7125C5.16641 18.5915 5.07914 18.4409 5.03429 18.2757C4.98944 18.1106 4.98857 17.9365 5.03176 17.7709L6.34022 12.7617C6.37841 12.6113 6.45047 12.4716 6.55088 12.3534L18.624 0.287023C18.808 0.103233 19.0574 0 19.3174 0C19.5775 0 19.8269 0.103233 20.0109 0.287023L23.7125 3.98767C23.7595 4.03479 23.8016 4.08652 23.8381 4.14208ZM21.6308 4.68122L19.3174 2.36896L8.17205 13.5154L7.35427 16.6468L10.4854 15.829L21.6308 4.68122Z" fill="#505050"/>
<path d="M20.8067 18.5475C21.1396 15.5835 21.2459 12.5966 21.1246 9.61502C21.122 9.54477 21.1333 9.47472 21.1578 9.40922C21.1823 9.34373 21.2195 9.2842 21.2671 9.23437L22.4656 7.98585C22.4984 7.95154 22.5399 7.92781 22.5853 7.91751C22.6307 7.90722 22.678 7.9108 22.7215 7.92781C22.7649 7.94483 22.8028 7.97457 22.8304 8.01345C22.8581 8.05233 22.8744 8.0987 22.8773 8.14699C23.1029 11.6886 23.0173 15.2442 22.6215 18.7696C22.3341 21.3351 20.3561 23.3462 17.9043 23.6317C13.6479 24.1228 9.3524 24.1228 5.09598 23.6317C2.6454 23.3462 0.666176 21.3351 0.378732 18.7696C-0.126244 14.2721 -0.126244 9.72868 0.378732 5.23123C0.666176 2.66567 2.64418 0.654579 5.09598 0.369094C8.32652 -0.00409003 11.5814 -0.0944932 14.8264 0.0988341C14.8729 0.102308 14.9174 0.119574 14.9547 0.148587C14.992 0.1776 15.0206 0.217145 15.037 0.262539C15.0534 0.307932 15.057 0.357272 15.0473 0.404716C15.0376 0.452159 15.0151 0.495718 14.9823 0.530235L13.7729 1.78891C13.7255 1.83807 13.669 1.87661 13.6068 1.90214C13.5446 1.92767 13.478 1.93966 13.4111 1.93736C10.7033 1.84147 7.99229 1.9496 5.29938 2.26091C4.51249 2.35164 3.77794 2.71607 3.21438 3.29532C2.65083 3.87457 2.29118 4.63483 2.19353 5.45327C1.70517 9.8032 1.70517 14.1976 2.19353 18.5475C2.29118 19.366 2.65083 20.1262 3.21438 20.7055C3.77794 21.2847 4.51249 21.6492 5.29938 21.7399C9.38571 22.2157 13.6145 22.2157 17.7021 21.7399C18.489 21.6492 19.2235 21.2847 19.7871 20.7055C20.3507 20.1262 20.7091 19.366 20.8067 18.5475Z" fill="#505050"/>
</g>
<defs>
<clipPath id="clip0_6_366">
<rect width="24" height="24" fill="white"/>
</clipPath>
</defs>
</svg>
