<svg width="25" height="24" viewBox="0 0 25 24" fill="none" xmlns="http://www.w3.org/2000/svg">
<g clip-path="url(#clip0_3_71)">
<path d="M13.72 17.5C13.72 17.7652 13.6146 18.0196 13.4271 18.2071C13.2396 18.3946 12.9852 18.5 12.72 18.5C12.4548 18.5 12.2004 18.3946 12.0129 18.2071C11.8254 18.0196 11.72 17.7652 11.72 17.5C11.72 17.2348 11.8254 16.9804 12.0129 16.7929C12.2004 16.6054 12.4548 16.5 12.72 16.5C12.9852 16.5 13.2396 16.6054 13.4271 16.7929C13.6146 16.9804 13.72 17.2348 13.72 17.5ZM13.47 9.25C13.47 9.05109 13.391 8.86032 13.2503 8.71967C13.1097 8.57902 12.9189 8.5 12.72 8.5C12.5211 8.5 12.3303 8.57902 12.1897 8.71967C12.049 8.86032 11.97 9.05109 11.97 9.25V13.75C11.97 13.9489 12.049 14.1397 12.1897 14.2803C12.3303 14.421 12.5211 14.5 12.72 14.5C12.9189 14.5 13.1097 14.421 13.2503 14.2803C13.391 14.1397 13.47 13.9489 13.47 13.75V9.25Z" fill="#505050"/>
<path d="M10.556 3.24411C11.519 1.57911 13.921 1.57911 14.884 3.24411L23.851 18.7481C24.814 20.4151 23.611 22.5001 21.686 22.5001H3.754C1.828 22.5001 0.626004 20.4151 1.589 18.7481L10.556 3.24411ZM13.586 3.99511C13.4978 3.84361 13.3714 3.71789 13.2195 3.63051C13.0675 3.54313 12.8953 3.49714 12.72 3.49714C12.5447 3.49714 12.3725 3.54313 12.2205 3.63051C12.0686 3.71789 11.9422 3.84361 11.854 3.99511L2.888 19.4991C2.80063 19.6513 2.75474 19.8237 2.75491 19.9991C2.75509 20.1746 2.80133 20.3469 2.889 20.4989C2.97668 20.6508 3.10272 20.7771 3.25452 20.8651C3.40632 20.953 3.57856 20.9996 3.754 21.0001H21.686C21.8613 20.9995 22.0334 20.9529 22.185 20.865C22.3367 20.7771 22.4626 20.6509 22.5503 20.4991C22.6379 20.3473 22.6842 20.1751 22.6845 19.9998C22.6848 19.8245 22.6391 19.6522 22.552 19.5001L13.586 3.99511Z" fill="#505050"/>
</g>
<defs>
<clipPath id="clip0_3_71">
<rect width="24" height="24" fill="white" transform="translate(0.720001)"/>
</clipPath>
</defs>
</svg>
