<svg width="24" height="24" viewBox="0 0 24 24" fill="none" xmlns="http://www.w3.org/2000/svg">
<path d="M15.93 17.229C16.1209 17.0683 16.2944 16.8804 16.6402 16.5058L20.9565 11.8283C21.0612 11.7161 21.0132 11.5211 20.8747 11.4679C20.1993 11.2129 19.5861 10.7951 19.0814 10.2459C18.5745 9.69917 18.1889 9.03487 17.9535 8.30313C17.9044 8.15305 17.7244 8.10105 17.6208 8.2145L13.3023 12.8907C12.9565 13.2654 12.7831 13.4533 12.6347 13.6601C12.4591 13.9047 12.3075 14.1682 12.1853 14.4471C12.0817 14.6835 12.0042 14.9364 11.8493 15.4398L11.6486 16.0898L11.3301 17.1238L11.0323 18.0929C10.9952 18.2143 10.9899 18.3446 11.0172 18.4691C11.0444 18.5936 11.1031 18.7074 11.1866 18.7979C11.2701 18.8883 11.3752 18.9519 11.4901 18.9814C11.605 19.0109 11.7252 19.0052 11.8373 18.965L12.7318 18.6424L13.6862 18.2973L14.2862 18.0799C14.7509 17.9121 14.9843 17.8293 15.2025 17.7159C15.4599 17.5823 15.7053 17.4204 15.93 17.229ZM22.3091 10.3641C22.7516 9.88459 23.0001 9.23426 23 8.5562C22.9999 7.87814 22.7512 7.2279 22.3085 6.74852C21.8659 6.26914 21.2656 5.99989 20.6398 6C20.0139 6.00011 19.4137 6.26957 18.9712 6.74911L18.8338 6.90038C18.7677 6.97091 18.7185 7.0578 18.6904 7.15354C18.6623 7.24927 18.6561 7.35098 18.6723 7.4499C18.6941 7.57635 18.7323 7.76307 18.8032 7.98405C18.945 8.42722 19.2134 9.00864 19.7184 9.5558C20.1263 10.0012 20.6224 10.3403 21.1692 10.5473C21.3743 10.6241 21.5455 10.6655 21.6622 10.6891C21.7535 10.7066 21.8474 10.6999 21.9357 10.6694C22.0241 10.6389 22.1043 10.5857 22.1695 10.5142L22.3091 10.3641Z" fill="#505050"/>
<path fill-rule="evenodd" clip-rule="evenodd" d="M2.30222 2.2892C1 3.5773 1 5.6519 1 9.8V14.2C1 18.3481 1 20.4227 2.30222 21.7108C3.60333 23 5.69889 23 9.88889 23H12.1111C16.3011 23 18.3967 23 19.6978 21.7108C20.9789 20.4436 21 18.4152 21 14.398L17.8689 17.4978C17.5689 17.7948 17.3233 18.0379 17.0467 18.2524C16.7216 18.5032 16.3699 18.7183 15.9978 18.8937C15.6566 19.0451 15.3063 19.1756 14.9489 19.2842L12.38 20.1323C11.9722 20.2669 11.5346 20.2865 11.1162 20.1887C10.6978 20.091 10.3152 19.8798 10.0112 19.5789C9.70726 19.278 9.49396 18.8992 9.39522 18.485C9.29649 18.0708 9.31623 17.6375 9.45222 17.2338L9.75667 16.3318L10.2844 14.7632L10.3078 14.6906C10.4422 14.2924 10.5522 13.9668 10.7033 13.6522C10.8811 13.2837 11.0978 12.9361 11.3511 12.6149C11.5678 12.3399 11.8133 12.0979 12.1133 11.8009L16.5644 7.3932L17.8 6.17L17.9411 6.0303C18.3187 5.65542 18.7675 5.35815 19.2615 5.15559C19.7556 4.95303 20.2852 4.84917 20.82 4.85C20.6522 3.717 20.3267 2.9107 19.6978 2.2892C18.3967 1 16.3011 1 12.1111 1H9.88889C5.69889 1 3.60333 1 2.30222 2.2892ZM5.72222 8.7C5.72222 8.4812 5.81002 8.27135 5.9663 8.11664C6.12258 7.96192 6.33454 7.875 6.55556 7.875H13.7778C13.9988 7.875 14.2108 7.96192 14.367 8.11664C14.5233 8.27135 14.6111 8.4812 14.6111 8.7C14.6111 8.9188 14.5233 9.12865 14.367 9.28336C14.2108 9.43808 13.9988 9.525 13.7778 9.525H6.55556C6.33454 9.525 6.12258 9.43808 5.9663 9.28336C5.81002 9.12865 5.72222 8.9188 5.72222 8.7ZM5.72222 13.1C5.72222 12.8812 5.81002 12.6714 5.9663 12.5166C6.12258 12.3619 6.33454 12.275 6.55556 12.275H9.33333C9.55435 12.275 9.76631 12.3619 9.92259 12.5166C10.0789 12.6714 10.1667 12.8812 10.1667 13.1C10.1667 13.3188 10.0789 13.5286 9.92259 13.6834C9.76631 13.8381 9.55435 13.925 9.33333 13.925H6.55556C6.33454 13.925 6.12258 13.8381 5.9663 13.6834C5.81002 13.5286 5.72222 13.3188 5.72222 13.1ZM5.72222 17.5C5.72222 17.2812 5.81002 17.0714 5.9663 16.9166C6.12258 16.7619 6.33454 16.675 6.55556 16.675H8.22222C8.44324 16.675 8.6552 16.7619 8.81148 16.9166C8.96776 17.0714 9.05556 17.2812 9.05556 17.5C9.05556 17.7188 8.96776 17.9286 8.81148 18.0834C8.6552 18.2381 8.44324 18.325 8.22222 18.325H6.55556C6.33454 18.325 6.12258 18.2381 5.9663 18.0834C5.81002 17.9286 5.72222 17.7188 5.72222 17.5Z" fill="#505050"/>
</svg>
