<svg width="24" height="24" viewBox="0 0 24 24" fill="none" xmlns="http://www.w3.org/2000/svg">
<g clip-path="url(#clip0_6_331)">
<path d="M4.3 3.2836C3.2275 3.3892 2.5059 3.6279 1.9669 4.1669C1 5.1327 1 6.6892 1 9.8V14.2C1 17.3108 1 18.8673 1.9669 19.8331C2.5059 20.3721 3.2275 20.6108 4.3 20.7164M19.7 3.2836C20.7725 3.3892 21.4941 3.6279 22.0331 4.1669C23 5.1327 23 6.6892 23 9.8V14.2C23 17.3108 23 18.8673 22.0331 19.8331C21.4941 20.3721 20.7725 20.6108 19.7 20.7164M4.3 7.6C4.3 4.4892 4.3 2.9327 5.2669 1.9669C6.2327 1 7.7892 1 10.9 1H13.1C16.2108 1 17.7673 1 18.7331 1.9669C19.7 2.9327 19.7 4.4892 19.7 7.6V16.4C19.7 19.5108 19.7 21.0673 18.7331 22.0331C17.7673 23 16.2108 23 13.1 23H10.9C7.7892 23 6.2327 23 5.2669 22.0331C4.3 21.0673 4.3 19.5108 4.3 16.4V7.6Z" stroke="#505050" stroke-width="1.5"/>
<path d="M8.70001 13.1002H15.3M8.70001 8.7002H15.3M8.70001 17.5002H12" stroke="#505050" stroke-width="1.5" stroke-linecap="round"/>
</g>
<defs>
<clipPath id="clip0_6_331">
<rect width="24" height="24" fill="white"/>
</clipPath>
</defs>
</svg>
