<svg width="24" height="24" viewBox="0 0 24 24" fill="none" xmlns="http://www.w3.org/2000/svg">
<path d="M9.533 11.1501C9.19173 11.4918 9.00003 11.9551 9 12.4381V15.0001H11.578C12.061 15.0001 12.525 14.8081 12.867 14.4661L20.467 6.86206C20.6362 6.69287 20.7705 6.49199 20.8621 6.27091C20.9537 6.04982 21.0008 5.81286 21.0008 5.57356C21.0008 5.33425 20.9537 5.09729 20.8621 4.87621C20.7705 4.65513 20.6362 4.45425 20.467 4.28506L19.716 3.53406C19.5468 3.36468 19.3459 3.2303 19.1247 3.13862C18.9035 3.04694 18.6664 2.99976 18.427 2.99976C18.1876 2.99976 17.9505 3.04694 17.7293 3.13862C17.5081 3.2303 17.3072 3.36468 17.138 3.53406L9.533 11.1501Z" stroke="#505050" stroke-width="1.5" stroke-linecap="round" stroke-linejoin="round"/>
<path d="M21 12C21 16.243 21 18.364 19.682 19.682C18.364 21 16.242 21 12 21C7.757 21 5.636 21 4.318 19.682C3 18.364 3 16.242 3 12C3 7.757 3 5.636 4.318 4.318C5.636 3 7.758 3 12 3" stroke="#505050" stroke-width="1.5" stroke-linecap="round" stroke-linejoin="round"/>
</svg>
