<svg width="25" height="24" viewBox="0 0 25 24" fill="none" xmlns="http://www.w3.org/2000/svg">
<path d="M20.8522 14.4509L22.0259 11.5165C22.2223 11.0243 21.8442 10.4993 21.2893 10.4993H18.4165C18.9567 9.61338 19.2906 8.59619 19.2906 7.49932V7.48525C21.2156 7.11963 22.4335 6.58994 22.4335 5.99932C22.4335 5.37588 21.0929 4.82275 18.9911 4.45244C18.5393 2.91494 17.6652 1.36807 16.9973 0.571192C16.5308 0.0133792 15.7254 -0.160058 15.0576 0.158692L13.7022 0.805567C13.2603 1.0165 12.7397 1.0165 12.2978 0.805567L10.9424 0.158692C10.2746 -0.160058 9.4692 0.0133792 9.00268 0.571192C8.33973 1.36807 7.46071 2.91494 7.00893 4.45244C4.91205 4.82275 3.57143 5.37588 3.57143 5.99932C3.57143 6.58994 4.78929 7.11963 6.71429 7.48525V7.49932C6.71429 8.59619 7.04821 9.61338 7.58839 10.4993H4.76473C4.2 10.4993 3.82187 11.0478 4.04286 11.5446L5.30982 14.3665C3.34063 15.4587 2 17.4696 2 19.7993V21.8993C2 23.0571 2.98705 23.9993 4.2 23.9993H21.8C23.0129 23.9993 24 23.0571 24 21.8993V19.7993C24 17.5306 22.733 15.5618 20.8522 14.4509ZM10.6429 22.4993L8.6 13.4993L11.0357 14.9993L12.2143 16.8743L10.6429 22.4993ZM15.3571 22.4993L13.7857 16.8743L14.9643 14.9993L17.4 13.4993L15.3571 22.4993ZM17.4049 8.50713C17.2134 9.06494 17.0612 9.66025 16.5946 10.0728C16.0987 10.5087 14.2375 11.1228 13.4518 8.90088C13.3143 8.50713 12.6955 8.50713 12.5531 8.90088C11.7183 11.254 9.80312 10.4196 9.41027 10.0728C8.94375 9.66025 8.78661 9.06494 8.6 8.50713C8.56071 8.38994 8.29063 8.23994 8.29063 8.23526V7.729C9.68036 7.89775 11.2862 8.00088 13.0049 8.00088C14.7237 8.00088 16.3295 7.90244 17.7192 7.729V8.23526C17.7143 8.23994 17.4442 8.38525 17.4049 8.50713Z" fill="#505050"/>
</svg>
