<svg width="24" height="24" viewBox="0 0 24 24" fill="none" xmlns="http://www.w3.org/2000/svg">
<path d="M19.1384 14.247L20.2054 11.5571C20.3839 11.1059 20.0402 10.6246 19.5357 10.6246H16.9241C17.4152 9.81252 17.7188 8.88007 17.7188 7.87457V7.86168C19.4688 7.52651 20.5759 7.04095 20.5759 6.49953C20.5759 5.92803 19.3571 5.42098 17.4464 5.08152C17.0357 3.67211 16.2411 2.2541 15.6339 1.52361C15.2098 1.01226 14.4777 0.853276 13.8705 1.14547L12.6384 1.73846C12.2366 1.93182 11.7634 1.93182 11.3616 1.73846L10.1295 1.14547C9.52232 0.853276 8.79018 1.01226 8.36607 1.52361C7.76339 2.2541 6.96429 3.67211 6.55357 5.08152C4.64732 5.42098 3.42857 5.92803 3.42857 6.49953C3.42857 7.04095 4.53571 7.52651 6.28571 7.86168V7.87457C6.28571 8.88007 6.58929 9.81252 7.08036 10.6246H4.51339C4 10.6246 3.65625 11.1274 3.85714 11.5829L5.00893 14.1697C3.21875 15.1709 2 17.0143 2 19.1499V21.0749C2 22.1363 2.89732 23 4 23H20C21.1027 23 22 22.1363 22 21.0749V19.1499C22 17.0701 20.8482 15.2654 19.1384 14.247ZM9.85714 21.625L8 13.3747L10.2143 14.7498L11.2857 16.4686L9.85714 21.625ZM14.1429 21.625L12.7143 16.4686L13.7857 14.7498L16 13.3747L14.1429 21.625ZM16.0045 8.79842C15.8304 9.30977 15.692 9.85549 15.2679 10.2336C14.817 10.6332 13.125 11.1961 12.4107 9.15937C12.2857 8.79842 11.7232 8.79842 11.5937 9.15937C10.8348 11.3165 9.09375 10.5516 8.73661 10.2336C8.3125 9.85549 8.16964 9.30977 8 8.79842C7.96429 8.691 7.71875 8.5535 7.71875 8.5492V8.08512C8.98214 8.23981 10.442 8.33435 12.0045 8.33435C13.567 8.33435 15.0268 8.24411 16.2902 8.08512V8.5492C16.2857 8.5535 16.0402 8.6867 16.0045 8.79842Z" fill="#505050"/>
</svg>
