<svg width="10" height="10" viewBox="0 0 10 10" fill="none" xmlns="http://www.w3.org/2000/svg">
<g clip-path="url(#clip0_10_663)">
<path d="M3.33334 4.48333H3.09167C2.76188 4.47141 2.43316 4.5274 2.12591 4.64782C1.81866 4.76823 1.53943 4.95051 1.30556 5.18333L1.23889 5.26111V7.56111H2.37222V6.25556L2.525 6.08333L2.59445 6.00278C2.95609 5.63125 3.40633 5.35786 3.90278 5.20833C3.65422 5.0192 3.45819 4.76962 3.33334 4.48333Z" fill="#3898DE"/>
<path d="M8.70554 5.175C8.47167 4.94217 8.19244 4.7599 7.88519 4.63948C7.57794 4.51907 7.24922 4.46308 6.91943 4.475C6.81828 4.47529 6.71722 4.48085 6.61665 4.49167C6.48945 4.76025 6.29878 4.99383 6.0611 5.17222C6.59109 5.31885 7.0712 5.60691 7.44999 6.00556L7.51943 6.08333L7.66943 6.25556V7.56389H8.76387V5.25278L8.70554 5.175Z" fill="#3898DE"/>
<path d="M3.08334 3.94167H3.16945C3.12944 3.59812 3.18972 3.25034 3.34301 2.9403C3.49631 2.63026 3.73606 2.37122 4.03334 2.19444C3.92558 2.02982 3.77691 1.896 3.6019 1.8061C3.42688 1.71619 3.23152 1.67328 3.03493 1.68156C2.83835 1.68985 2.64729 1.74904 2.48046 1.85336C2.31362 1.95767 2.17674 2.10352 2.08321 2.27662C1.98969 2.44973 1.94272 2.64416 1.94691 2.84088C1.95111 3.03759 2.00631 3.22984 2.10713 3.39881C2.20795 3.56777 2.35092 3.70766 2.52205 3.80477C2.69317 3.90188 2.88658 3.95288 3.08334 3.95278V3.94167Z" fill="#3898DE"/>
<path d="M6.78612 3.73333C6.78949 3.79718 6.78949 3.86116 6.78612 3.925C6.83943 3.93345 6.89327 3.93809 6.94723 3.93889H7.00001C7.1959 3.92844 7.38575 3.86745 7.55108 3.76186C7.7164 3.65626 7.85157 3.50965 7.94341 3.33631C8.03526 3.16297 8.08066 2.9688 8.07518 2.7727C8.06971 2.57661 8.01356 2.38527 7.91219 2.21732C7.81082 2.04937 7.66769 1.91053 7.49674 1.81431C7.32578 1.7181 7.13283 1.66779 6.93666 1.66828C6.74049 1.66878 6.54779 1.72006 6.37732 1.81713C6.20685 1.9142 6.06442 2.05376 5.9639 2.22222C6.21531 2.38637 6.42204 2.61036 6.56555 2.8741C6.70905 3.13784 6.78484 3.43308 6.78612 3.73333Z" fill="#3898DE"/>
<path d="M4.9639 4.97778C5.64965 4.97778 6.20556 4.42186 6.20556 3.73611C6.20556 3.05036 5.64965 2.49444 4.9639 2.49444C4.27814 2.49444 3.72223 3.05036 3.72223 3.73611C3.72223 4.42186 4.27814 4.97778 4.9639 4.97778Z" fill="#3898DE"/>
<path d="M5.03056 5.63889C4.66779 5.62424 4.30581 5.68314 3.9664 5.81203C3.62699 5.94092 3.31716 6.13714 3.05556 6.38889L2.98611 6.46667V8.225C2.9872 8.28227 2.99956 8.33877 3.02248 8.39127C3.0454 8.44377 3.07845 8.49124 3.11972 8.53096C3.16099 8.57069 3.20969 8.60189 3.26302 8.62279C3.31636 8.64369 3.37329 8.65388 3.43056 8.65278H6.62223C6.6795 8.65388 6.73643 8.64369 6.78976 8.62279C6.8431 8.60189 6.89179 8.57069 6.93307 8.53096C6.97434 8.49124 7.00738 8.44377 7.03031 8.39127C7.05323 8.33877 7.06559 8.28227 7.06667 8.225V6.47222L7 6.38889C6.74009 6.13637 6.43134 5.93959 6.09269 5.81062C5.75403 5.68166 5.3926 5.62322 5.03056 5.63889Z" fill="#3898DE"/>
</g>
<defs>
<clipPath id="clip0_10_663">
<rect width="10" height="10" fill="white"/>
</clipPath>
</defs>
</svg>
