<svg width="30" height="30" viewBox="0 0 30 30" fill="none" xmlns="http://www.w3.org/2000/svg">
<path d="M15 1.25C7.40613 1.25 1.25 7.40613 1.25 15C1.25 22.5943 7.40613 28.75 15 28.75C22.5943 28.75 28.75 22.5943 28.75 15C28.75 7.40613 22.5943 1.25 15 1.25ZM15 27.0583C8.36605 27.0583 2.96875 21.6339 2.96875 14.9999C2.96875 8.366 8.36605 2.9687 15 2.9687C21.6339 2.9687 27.0312 8.36603 27.0312 14.9999C27.0312 21.6339 21.6339 27.0583 15 27.0583ZM20.4875 9.96879L12.4201 18.0869L8.78712 14.4539C8.45154 14.1183 7.90755 14.1183 7.57154 14.4539C7.23595 14.7895 7.23595 15.3334 7.57154 15.669L11.825 19.9229C12.1606 20.2581 12.7046 20.2581 13.0406 19.9229C13.0793 19.8843 13.1124 19.8421 13.1425 19.7983L21.7036 11.1843C22.0387 10.8488 22.0387 10.3048 21.7036 9.96879C21.3675 9.6332 20.8236 9.6332 20.4875 9.96879Z" fill="white"/>
</svg>
