<svg width="24" height="24" viewBox="0 0 24 24" fill="none" xmlns="http://www.w3.org/2000/svg">
<path fill-rule="evenodd" clip-rule="evenodd" d="M21.8637 5.48807C21.9684 5.64698 22.015 5.83715 21.9957 6.02647C21.9765 6.21579 21.8925 6.39266 21.7579 6.52722L11.6286 16.6564C11.5249 16.76 11.3957 16.8341 11.2539 16.8713L7.03495 17.9732C6.89548 18.0096 6.74893 18.0089 6.60984 17.9711C6.47075 17.9334 6.34396 17.8599 6.24204 17.7579C6.14013 17.656 6.06664 17.5292 6.02888 17.3901C5.99111 17.251 5.99038 17.1044 6.02675 16.965L7.1286 12.7467C7.16077 12.62 7.22145 12.5024 7.306 12.4029L17.4728 2.2417C17.6278 2.08693 17.8378 2 18.0568 2C18.2758 2 18.4858 2.08693 18.6408 2.2417L21.7579 5.35804C21.7975 5.39772 21.8329 5.44128 21.8637 5.48807ZM20.0049 5.94208L18.0568 3.99492L8.6712 13.3814L7.98254 16.0184L10.6193 15.3297L20.0049 5.94208Z" fill="#505050"/>
<path d="M19.1882 17.4563C19.4632 14.9863 19.551 12.4972 19.4508 10.0125C19.4486 9.95398 19.4579 9.8956 19.4782 9.84102C19.4984 9.78644 19.5292 9.73684 19.5685 9.69531L20.5586 8.65487C20.5856 8.62628 20.62 8.60651 20.6574 8.59793C20.6949 8.58935 20.734 8.59233 20.7699 8.60651C20.8058 8.62069 20.8371 8.64547 20.8599 8.67787C20.8828 8.71027 20.8962 8.74892 20.8986 8.78916C21.085 11.7405 21.0143 14.7035 20.6874 17.6413C20.4499 19.7793 18.8159 21.4552 16.7905 21.6931C13.2743 22.1023 9.7259 22.1023 6.20972 21.6931C4.18533 21.4552 2.55032 19.7793 2.31287 17.6413C1.89571 13.8934 1.89571 10.1072 2.31287 6.35936C2.55032 4.22139 4.18432 2.54548 6.20972 2.30758C8.87843 1.99659 11.5672 1.92126 14.2479 2.08236C14.2863 2.08526 14.3231 2.09964 14.3539 2.12382C14.3847 2.148 14.4083 2.18095 14.4218 2.21878C14.4354 2.25661 14.4384 2.29773 14.4304 2.33726C14.4224 2.3768 14.4037 2.4131 14.3767 2.44186L13.3776 3.49076C13.3385 3.53173 13.2918 3.56384 13.2404 3.58512C13.189 3.60639 13.134 3.61638 13.0788 3.61447C10.8418 3.53456 8.60233 3.62467 6.37775 3.88409C5.72771 3.9597 5.12091 4.26339 4.65536 4.7461C4.18981 5.22881 3.89271 5.86236 3.81204 6.54439C3.40862 10.1693 3.40862 13.8313 3.81204 17.4563C3.89271 18.1383 4.18981 18.7719 4.65536 19.2546C5.12091 19.7373 5.72771 20.041 6.37775 20.1166C9.75342 20.5131 13.2468 20.5131 16.6235 20.1166C17.2735 20.041 17.8803 19.7373 18.3459 19.2546C18.8114 18.7719 19.1075 18.1383 19.1882 17.4563Z" fill="#505050"/>
</svg>
