<svg width="24" height="24" viewBox="0 0 24 24" fill="none" xmlns="http://www.w3.org/2000/svg">
<g clip-path="url(#clip0_6_328)">
<path fill-rule="evenodd" clip-rule="evenodd" d="M4.13014 1.0548C3 2.1084 3 3.8064 3 7.2V16.8C3 20.1936 3 21.8916 4.13014 22.9452C5.259 24 7.07829 24 10.7143 24H13.2857C16.9217 24 18.741 24 19.8699 22.9452C21 21.8916 21 20.1936 21 16.8V7.2C21 3.8064 21 2.1084 19.8699 1.0548C18.741 -7.15256e-08 16.9217 0 13.2857 0H10.7143C7.07829 0 5.259 -7.15256e-08 4.13014 1.0548ZM7.17857 18C7.17857 17.7613 7.28017 17.5324 7.461 17.3636C7.64184 17.1948 7.88711 17.1 8.14286 17.1H12C12.2557 17.1 12.501 17.1948 12.6819 17.3636C12.8627 17.5324 12.9643 17.7613 12.9643 18C12.9643 18.2387 12.8627 18.4676 12.6819 18.6364C12.501 18.8052 12.2557 18.9 12 18.9H8.14286C7.88711 18.9 7.64184 18.8052 7.461 18.6364C7.28017 18.4676 7.17857 18.2387 7.17857 18ZM8.14286 12.3C7.88711 12.3 7.64184 12.3948 7.461 12.5636C7.28017 12.7324 7.17857 12.9613 7.17857 13.2C7.17857 13.4387 7.28017 13.6676 7.461 13.8364C7.64184 14.0052 7.88711 14.1 8.14286 14.1H15.8571C16.1129 14.1 16.3582 14.0052 16.539 13.8364C16.7198 13.6676 16.8214 13.4387 16.8214 13.2C16.8214 12.9613 16.7198 12.7324 16.539 12.5636C16.3582 12.3948 16.1129 12.3 15.8571 12.3H8.14286ZM7.17857 8.4C7.17857 8.16131 7.28017 7.93239 7.461 7.7636C7.64184 7.59482 7.88711 7.5 8.14286 7.5H15.8571C16.1129 7.5 16.3582 7.59482 16.539 7.7636C16.7198 7.93239 16.8214 8.16131 16.8214 8.4C16.8214 8.6387 16.7198 8.86761 16.539 9.0364C16.3582 9.20518 16.1129 9.3 15.8571 9.3H8.14286C7.88711 9.3 7.64184 9.20518 7.461 9.0364C7.28017 8.86761 7.17857 8.6387 7.17857 8.4Z" fill="#505050"/>
<path opacity="0.5" d="M3.882 2C3.6 3.11181 3.6 4.66809 3.6 6.96349V17.0365C3.6 19.3319 3.6 20.8869 3.882 22L3.6 21.9773C2.43 21.8565 1.6428 21.5832 1.0548 20.9663C-7.15256e-08 19.8607 0 18.0791 0 14.5183V9.48174C0 5.91967 -7.15256e-08 4.13926 1.0548 3.03374C1.6428 2.41677 2.43 2.14354 3.6 2.02266L3.882 2ZM20.118 22C20.4 20.8869 20.4 19.3306 20.4 17.0365V6.96349C20.4 4.66809 20.4 3.11181 20.118 2L20.4 2.02266C21.57 2.14354 22.3572 2.41677 22.9452 3.03374C24 4.13926 24 5.91841 24 9.48048V14.517C24 18.0803 24 19.8595 22.9452 20.9663C22.3572 21.5832 21.57 21.8565 20.4 21.9773L20.118 22Z" fill="#505050"/>
</g>
<defs>
<clipPath id="clip0_6_328">
<rect width="24" height="24" fill="white"/>
</clipPath>
</defs>
</svg>
