<svg width="90" height="90" viewBox="0 0 90 90" fill="none" xmlns="http://www.w3.org/2000/svg">
<path d="M36.5882 3.21423H77.1011C80.1161 3.21423 82.5589 5.65709 82.5589 8.67209V52.2449C82.5589 55.2664 80.1161 57.7092 77.1011 57.7092H43.9811M16.0103 25.7207C18.9949 25.7207 21.8572 24.5351 23.9676 22.4247C26.078 20.3143 27.2636 17.452 27.2636 14.4674C27.2636 11.4829 26.078 8.62061 23.9676 6.51022C21.8572 4.39984 18.9949 3.21423 16.0103 3.21423C13.0258 3.21423 10.1635 4.39984 8.05312 6.51022C5.94273 8.62061 4.75713 11.4829 4.75713 14.4674C4.75713 17.452 5.94273 20.3143 8.05312 22.4247C10.1635 24.5351 13.0258 25.7207 16.0103 25.7207Z" stroke="white" stroke-width="5" stroke-linecap="round" stroke-linejoin="round"/>
<path d="M57.8571 35.5306C57.8571 31.8856 54.9 28.9285 51.255 28.9285H20.2436C15.7271 28.9285 11.3957 30.7226 8.20204 33.9162C5.00843 37.1098 3.21428 41.4413 3.21428 45.9578V61.0713H10.5107L12.9471 86.7856H27.54L33.1457 42.1392H51.255C54.9 42.1392 57.8571 39.182 57.8571 35.5306Z" stroke="white" stroke-width="5" stroke-linecap="round" stroke-linejoin="round"/>
</svg>
