<svg width="22" height="24" viewBox="0 0 22 24" fill="none" xmlns="http://www.w3.org/2000/svg">
<g clip-path="url(#clip0_183_2)">
<path d="M1.46997 6.1875H20.97C21.3842 6.1875 21.72 5.85173 21.72 5.4375V3.5625C21.72 3.14827 21.3842 2.8125 20.97 2.8125H1.46997C1.05574 2.8125 0.719971 3.14827 0.719971 3.5625V5.4375C0.719971 5.85173 1.05574 6.1875 1.46997 6.1875ZM1.46997 13.6875H20.97C21.3842 13.6875 21.72 13.3517 21.72 12.9375V11.0625C21.72 10.6483 21.3842 10.3125 20.97 10.3125H1.46997C1.05574 10.3125 0.719971 10.6483 0.719971 11.0625V12.9375C0.719971 13.3517 1.05574 13.6875 1.46997 13.6875ZM1.46997 21.1875H20.97C21.3842 21.1875 21.72 20.8517 21.72 20.4375V18.5625C21.72 18.1483 21.3842 17.8125 20.97 17.8125H1.46997C1.05574 17.8125 0.719971 18.1483 0.719971 18.5625V20.4375C0.719971 20.8517 1.05574 21.1875 1.46997 21.1875Z" fill="#505050"/>
</g>
<defs>
<clipPath id="clip0_183_2">
<rect width="21" height="24" fill="white" transform="translate(0.719971)"/>
</clipPath>
</defs>
</svg>
