<svg width="100" height="100" viewBox="0 0 100 100" fill="none" xmlns="http://www.w3.org/2000/svg">
<path d="M50 8.33337C26.9875 8.33337 8.33334 26.9875 8.33334 50C8.33334 73.0125 26.9875 91.6667 50 91.6667C73.0125 91.6667 91.6667 73.0125 91.6667 50C91.6667 26.9875 73.0125 8.33337 50 8.33337Z" stroke="url(#paint0_linear_98_78)" stroke-width="6.25" stroke-linecap="round" stroke-linejoin="round"/>
<path d="M17.7958 76.4417C17.7958 76.4417 27.0833 64.5833 50 64.5833C72.9167 64.5833 82.2083 76.4417 82.2083 76.4417M50 50C53.3152 50 56.4946 48.683 58.8388 46.3388C61.183 43.9946 62.5 40.8152 62.5 37.5C62.5 34.1848 61.183 31.0054 58.8388 28.6612C56.4946 26.317 53.3152 25 50 25C46.6848 25 43.5054 26.317 41.1612 28.6612C38.817 31.0054 37.5 34.1848 37.5 37.5C37.5 40.8152 38.817 43.9946 41.1612 46.3388C43.5054 48.683 46.6848 50 50 50Z" stroke="url(#paint1_linear_98_78)" stroke-width="6.25" stroke-linecap="round" stroke-linejoin="round"/>
<defs>
<linearGradient id="paint0_linear_98_78" x1="50" y1="8.33337" x2="50" y2="91.6667" gradientUnits="userSpaceOnUse">
<stop stop-color="#00D1FF"/>
<stop offset="1" stop-color="#3898DE"/>
</linearGradient>
<linearGradient id="paint1_linear_98_78" x1="50.0021" y1="25" x2="50.0021" y2="76.4417" gradientUnits="userSpaceOnUse">
<stop stop-color="#00D1FF"/>
<stop offset="1" stop-color="#3898DE"/>
</linearGradient>
</defs>
</svg>
