<svg width="100" height="100" viewBox="0 0 100 100" fill="none" xmlns="http://www.w3.org/2000/svg">
<path fill-rule="evenodd" clip-rule="evenodd" d="M89.3958 22.5667C89.7917 23.1675 89.9681 23.8866 89.8952 24.6024C89.8223 25.3183 89.5047 25.9871 88.9958 26.4958L50.6917 64.7958C50.2998 65.1874 49.8109 65.4679 49.275 65.6083L33.3208 69.775C32.7934 69.9125 32.2393 69.9098 31.7133 69.767C31.1873 69.6241 30.7078 69.3462 30.3225 68.9609C29.9371 68.5755 29.6592 68.096 29.5164 67.57C29.3735 67.044 29.3708 66.4899 29.5083 65.9625L33.675 50.0125C33.7966 49.5337 34.0261 49.0891 34.3458 48.7125L72.7916 10.2917C73.3776 9.70645 74.1719 9.37775 75 9.37775C75.8281 9.37775 76.6224 9.70645 77.2083 10.2917L88.9958 22.075C89.1453 22.225 89.2794 22.3897 89.3958 22.5667ZM82.3666 24.2833L75 16.9208L39.5083 52.4125L36.9042 62.3833L46.875 59.7792L82.3666 24.2833Z" fill="url(#paint0_linear_95_31)"/>
<path d="M81.8375 71.5C82.9764 61.7665 83.34 51.9578 82.925 42.1667C82.916 41.936 82.9546 41.7059 83.0385 41.4909C83.1224 41.2758 83.2497 41.0803 83.4125 40.9167L87.5125 36.8167C87.6245 36.704 87.7667 36.6261 87.922 36.5923C88.0772 36.5585 88.2389 36.5702 88.3877 36.6261C88.5364 36.682 88.6659 36.7796 88.7604 36.9073C88.855 37.035 88.9107 37.1873 88.9208 37.3458C89.6925 48.976 89.3996 60.6523 88.0458 72.2292C87.0625 80.6542 80.2958 87.2583 71.9083 88.1958C57.3473 89.8083 42.6527 89.8083 28.0917 88.1958C19.7083 87.2583 12.9375 80.6542 11.9542 72.2292C10.2267 57.4601 10.2267 42.5399 11.9542 27.7708C12.9375 19.3458 19.7042 12.7417 28.0917 11.8042C39.1432 10.5787 50.278 10.2818 61.3792 10.9167C61.538 10.9281 61.6903 10.9848 61.818 11.08C61.9456 11.1753 62.0433 11.3052 62.0994 11.4542C62.1555 11.6033 62.1677 11.7653 62.1346 11.9211C62.1015 12.0769 62.0244 12.22 61.9125 12.3333L57.775 16.4667C57.6129 16.6281 57.4195 16.7547 57.2067 16.8385C56.9939 16.9224 56.7661 16.9617 56.5375 16.9542C47.274 16.6393 37.9998 16.9944 28.7875 18.0167C26.0956 18.3146 23.5827 19.5113 21.6548 21.4135C19.7269 23.3157 18.4966 25.8123 18.1625 28.5C16.4919 42.7846 16.4919 57.2153 18.1625 71.5C18.4966 74.1877 19.7269 76.6842 21.6548 78.5864C23.5827 80.4886 26.0956 81.6854 28.7875 81.9833C42.7667 83.5458 57.2333 83.5458 71.2167 81.9833C73.9086 81.6854 76.4214 80.4886 78.3493 78.5864C80.2773 76.6842 81.5034 74.1877 81.8375 71.5Z" fill="url(#paint1_linear_95_31)"/>
<defs>
<linearGradient id="paint0_linear_95_31" x1="59.6592" y1="9.37775" x2="59.6592" y2="69.8761" gradientUnits="userSpaceOnUse">
<stop stop-color="#00D1FF"/>
<stop offset="1" stop-color="#3898DE"/>
</linearGradient>
<linearGradient id="paint1_linear_95_31" x1="49.9995" y1="10.5921" x2="49.9995" y2="89.4052" gradientUnits="userSpaceOnUse">
<stop stop-color="#00D1FF"/>
<stop offset="1" stop-color="#3898DE"/>
</linearGradient>
</defs>
</svg>
