<svg width="24" height="24" viewBox="0 0 24 24" fill="none" xmlns="http://www.w3.org/2000/svg">
<path d="M8.66669 9.77748L12.2867 12.493C12.511 12.6612 12.7905 12.7384 13.0693 12.7092C13.3481 12.6799 13.6056 12.5464 13.79 12.3353L20.8889 4.22192" stroke="#3898DE" stroke-width="2" stroke-linecap="round"/>
<path d="M22 11.9998C22 14.0893 21.3456 16.1263 20.1285 17.8247C18.9114 19.5232 17.1929 20.7977 15.2144 21.4693C13.2358 22.1409 11.0965 22.1759 9.097 21.5694C7.09751 20.9628 5.33825 19.7451 4.0663 18.0874C2.79436 16.4297 2.07363 14.4152 2.00534 12.3268C1.93706 10.2385 2.52465 8.18116 3.68558 6.44389C4.84652 4.70661 6.52248 3.37663 8.47807 2.64073C10.4337 1.90483 12.5707 1.79999 14.5889 2.34093" stroke="#3898DE" stroke-width="2" stroke-linecap="round"/>
</svg>
