<svg width="24" height="24" viewBox="0 0 24 24" fill="none" xmlns="http://www.w3.org/2000/svg">
<path d="M1.637 1C0.732 1 0 1.777 0 2.73656V21.2634C0 22.223 0.732 23 1.637 23H22.363C23.268 23 24 22.223 24 21.2634V2.73656C24 1.777 23.268 1 22.363 1H1.637ZM2.5 3.63353H21.3823L21.5 20.5H19H17.285H14H12.5H2.5V3.63353Z" fill="#505050"/>
<path d="M12 13C14.2091 13 16 11.2091 16 9C16 6.79086 14.2091 5 12 5C9.79086 5 8 6.79086 8 9C8 11.2091 9.79086 13 12 13Z" fill="#505050"/>
<path d="M12.0143 15.0058C10.7697 14.9718 9.52777 15.1085 8.36328 15.4076C7.19879 15.7067 6.13579 16.162 5.23826 16.7462L5 16.9267V21.0071C5.00372 21.14 5.04611 21.2711 5.12476 21.393C5.20341 21.5148 5.31678 21.6249 5.45838 21.7171C5.59998 21.8093 5.76705 21.8817 5.95004 21.9302C6.13302 21.9787 6.32835 22.0024 6.52485 21.9998H17.4752C17.6717 22.0024 17.867 21.9787 18.05 21.9302C18.2329 21.8817 18.4 21.8093 18.5416 21.7171C18.6832 21.6249 18.7966 21.5148 18.8752 21.393C18.9539 21.2711 18.9963 21.14 19 21.0071V16.9396L18.7713 16.7462C17.8795 16.1602 16.8203 15.7036 15.6584 15.4043C14.4965 15.105 13.2564 14.9694 12.0143 15.0058Z" fill="#505050"/>
</svg>
