<svg width="30" height="30" viewBox="0 0 30 30" fill="none" xmlns="http://www.w3.org/2000/svg">
<path d="M15 28.75C7.4057 28.75 1.25 22.5943 1.25 15C1.25 7.4057 7.4057 1.25 15 1.25C22.5943 1.25 28.75 7.4057 28.75 15C28.75 18.6467 27.3013 22.1441 24.7227 24.7227C22.1441 27.3013 18.6467 28.75 15 28.75ZM15 2.96875C8.35531 2.96875 2.96875 8.35531 2.96875 15C2.96875 21.6447 8.35531 27.0312 15 27.0312C21.6447 27.0312 27.0312 21.6447 27.0312 15C27.0312 11.8091 25.7637 8.74892 23.5074 6.49262C21.2511 4.23632 18.1909 2.96875 15 2.96875Z" fill="white"/>
<path d="M21.25 14.1071H15.8929V8.75H14.1071V14.1071H8.75V15.8929H14.1071V21.25H15.8929V15.8929H21.25V14.1071Z" fill="white"/>
</svg>
