<svg width="24" height="24" viewBox="0 0 24 24" fill="none" xmlns="http://www.w3.org/2000/svg">
<g clip-path="url(#clip0_503_28)">
<path d="M1 9.8C1 5.6519 1 3.5773 2.43244 2.2892C3.86367 1 6.16878 1 10.7778 1H13.2222C17.8312 1 20.1363 1 21.5676 2.2892C23 3.5773 23 5.6519 23 9.8V14.2C23 18.3481 23 20.4227 21.5676 21.7108C20.1363 23 17.8312 23 13.2222 23H10.7778C6.16878 23 3.86367 23 2.43244 21.7108C1 20.4227 1 18.3481 1 14.2V9.8Z" stroke="#505050" stroke-width="1.5"/>
<path d="M14.5994 12.4965C15.2891 11.9569 15.7924 11.2169 16.0395 10.3795C16.2866 9.5421 16.2651 8.64893 15.978 7.82425C15.6909 6.99956 15.1525 6.28438 14.4376 5.7782C13.7228 5.27201 12.8671 5 11.9896 5C11.112 5 10.2563 5.27201 9.54149 5.7782C8.82665 6.28438 8.28822 6.99956 8.00112 7.82425C7.71401 8.64893 7.69251 9.5421 7.9396 10.3795C8.18669 11.2169 8.69008 11.9569 9.37974 12.4965C8.19799 12.9674 7.16687 13.7483 6.39631 14.7562C5.62575 15.764 5.14463 16.9609 5.00424 18.2192C4.99408 18.3111 5.00221 18.4041 5.02818 18.4928C5.05414 18.5816 5.09743 18.6643 5.15556 18.7365C5.27298 18.8821 5.44375 18.9754 5.63032 18.9958C5.81689 19.0162 6.00397 18.9621 6.1504 18.8453C6.29684 18.7285 6.39063 18.5587 6.41116 18.3731C6.56562 17.0056 7.22132 15.7425 8.25296 14.8253C9.2846 13.9082 10.6199 13.4011 12.0036 13.4011C13.3874 13.4011 14.7227 13.9082 15.7543 14.8253C16.786 15.7425 17.4416 17.0056 17.5961 18.3731C17.6152 18.545 17.6977 18.7038 17.8276 18.8188C17.9575 18.9338 18.1257 18.9968 18.2996 18.9958H18.377C18.5614 18.9747 18.7299 18.8819 18.8458 18.7378C18.9618 18.5937 19.0158 18.4098 18.996 18.2262C18.8549 16.9643 18.3712 15.7643 17.5967 14.755C16.8222 13.7456 15.7861 12.9649 14.5994 12.4965ZM11.9896 11.9998C11.433 11.9998 10.889 11.8357 10.4263 11.5282C9.96356 11.2207 9.6029 10.7837 9.38993 10.2723C9.17696 9.76098 9.12123 9.19832 9.22981 8.65549C9.33838 8.11265 9.60637 7.61403 9.99989 7.22267C10.3934 6.83131 10.8948 6.56478 11.4406 6.45681C11.9864 6.34883 12.5522 6.40425 13.0664 6.61605C13.5805 6.82786 14.02 7.18653 14.3292 7.64672C14.6384 8.10692 14.8034 8.64796 14.8034 9.20142C14.8034 9.9436 14.5069 10.6554 13.9792 11.1802C13.4515 11.705 12.7358 11.9998 11.9896 11.9998Z" fill="#505050"/>
</g>
<defs>
<clipPath id="clip0_503_28">
<rect width="24" height="24" fill="white"/>
</clipPath>
</defs>
</svg>
