<svg width="24" height="24" viewBox="0 0 24 24" fill="none" xmlns="http://www.w3.org/2000/svg">
<path d="M12 2C6.47719 2 2 6.47719 2 12C2 17.5231 6.47719 22 12 22C17.5231 22 22 17.5231 22 12C22 6.47719 17.5231 2 12 2ZM12 20.7697C7.17531 20.7697 3.25 16.8247 3.25 12C3.25 7.17527 7.17531 3.24996 12 3.24996C16.8247 3.24996 20.75 7.17529 20.75 12C20.75 16.8246 16.8247 20.7697 12 20.7697ZM15.9909 8.34094L10.1237 14.245L7.48154 11.6028C7.23748 11.3588 6.84186 11.3588 6.59748 11.6028C6.35342 11.8469 6.35342 12.2425 6.59748 12.4866L9.69092 15.5803C9.93498 15.8241 10.3306 15.8241 10.575 15.5803C10.6031 15.5522 10.6272 15.5215 10.6491 15.4897L16.8753 9.22498C17.1191 8.98092 17.1191 8.58529 16.8753 8.34094C16.6309 8.09688 16.2353 8.09688 15.9909 8.34094Z" fill="#00A825"/>
</svg>
