<svg width="24" height="24" viewBox="0 0 24 24" fill="none" xmlns="http://www.w3.org/2000/svg">
<path d="M9.55556 12.4722H2.22222C1.96421 12.4722 1.75 12.258 1.75 12V2.22222C1.75 1.96421 1.96421 1.75 2.22222 1.75H9.55556C9.81356 1.75 10.0278 1.96421 10.0278 2.22222V12C10.0278 12.258 9.81356 12.4722 9.55556 12.4722ZM9.55556 22.25H2.22222C1.96421 22.25 1.75 22.0358 1.75 21.7778V16.8889C1.75 16.6309 1.96421 16.4167 2.22222 16.4167H9.55556C9.81356 16.4167 10.0278 16.6309 10.0278 16.8889V21.7778C10.0278 22.0358 9.81356 22.25 9.55556 22.25ZM21.7778 22.25H14.4444C14.1864 22.25 13.9722 22.0358 13.9722 21.7778V12C13.9722 11.742 14.1864 11.5278 14.4444 11.5278H21.7778C22.0358 11.5278 22.25 11.742 22.25 12V21.7778C22.25 22.0358 22.0358 22.25 21.7778 22.25ZM13.9722 7.11111V2.22222C13.9722 1.96421 14.1864 1.75 14.4444 1.75H21.7778C22.0358 1.75 22.25 1.96421 22.25 2.22222V7.11111C22.25 7.36912 22.0358 7.58333 21.7778 7.58333H14.4444C14.1864 7.58333 13.9722 7.36912 13.9722 7.11111Z" stroke="#505050" stroke-width="1.5"/>
</svg>
