<svg width="24" height="24" viewBox="0 0 24 24" fill="none" xmlns="http://www.w3.org/2000/svg">
<path d="M9.55556 12.2222H2.22222C2.10228 12.2222 2 12.1199 2 12V2.22222C2 2.10228 2.10228 2 2.22222 2H9.55556C9.67549 2 9.77778 2.10228 9.77778 2.22222V12C9.77778 12.1199 9.67549 12.2222 9.55556 12.2222ZM9.55556 22H2.22222C2.10228 22 2 21.8977 2 21.7778V16.8889C2 16.769 2.10228 16.6667 2.22222 16.6667H9.55556C9.67549 16.6667 9.77778 16.769 9.77778 16.8889V21.7778C9.77778 21.8977 9.67549 22 9.55556 22ZM21.7778 22H14.4444C14.3245 22 14.2222 21.8977 14.2222 21.7778V12C14.2222 11.8801 14.3245 11.7778 14.4444 11.7778H21.7778C21.8977 11.7778 22 11.8801 22 12V21.7778C22 21.8977 21.8977 22 21.7778 22ZM14.2222 7.11111V2.22222C14.2222 2.10228 14.3245 2 14.4444 2H21.7778C21.8977 2 22 2.10228 22 2.22222V7.11111C22 7.23105 21.8977 7.33333 21.7778 7.33333H14.4444C14.3245 7.33333 14.2222 7.23105 14.2222 7.11111Z" stroke="#505050" stroke-width="2"/>
</svg>
