<svg width="90" height="90" viewBox="0 0 90 90" fill="none" xmlns="http://www.w3.org/2000/svg">
<path d="M36.5882 3.21429H77.1011C80.1161 3.21429 82.5589 5.65715 82.5589 8.67215V52.245C82.5589 55.2664 80.1161 57.7093 77.1011 57.7093H43.9811M16.0104 25.7207C18.9949 25.7207 21.8572 24.5351 23.9676 22.4247C26.078 20.3143 27.2636 17.452 27.2636 14.4675C27.2636 11.483 26.078 8.62067 23.9676 6.51028C21.8572 4.3999 18.9949 3.21429 16.0104 3.21429C13.0258 3.21429 10.1635 4.3999 8.05313 6.51028C5.94274 8.62067 4.75714 11.483 4.75714 14.4675C4.75714 17.452 5.94274 20.3143 8.05313 22.4247C10.1635 24.5351 13.0258 25.7207 16.0104 25.7207Z" stroke="white" stroke-width="5" stroke-linecap="round" stroke-linejoin="round"/>
<path d="M57.8571 35.5307C57.8571 31.8857 54.9 28.9286 51.255 28.9286H20.2436C15.7271 28.9286 11.3957 30.7227 8.20206 33.9164C5.00845 37.11 3.21429 41.4414 3.21429 45.9579V61.0714H10.5107L12.9472 86.7857H27.54L33.1457 42.1393H51.255C54.9 42.1393 57.8571 39.1822 57.8571 35.5307Z" stroke="white" stroke-width="5" stroke-linecap="round" stroke-linejoin="round"/>
</svg>
