<svg width="24" height="24" viewBox="0 0 24 24" fill="none" xmlns="http://www.w3.org/2000/svg">
<path d="M9.77778 12.3611H3.11111C2.91421 12.3611 2.75 12.1969 2.75 12V3.11111C2.75 2.91421 2.91421 2.75 3.11111 2.75H9.77778C9.97468 2.75 10.1389 2.91421 10.1389 3.11111V12C10.1389 12.1969 9.97468 12.3611 9.77778 12.3611ZM9.77778 21.25H3.11111C2.91421 21.25 2.75 21.0858 2.75 20.8889V16.4444C2.75 16.2475 2.91421 16.0833 3.11111 16.0833H9.77778C9.97468 16.0833 10.1389 16.2475 10.1389 16.4444V20.8889C10.1389 21.0858 9.97468 21.25 9.77778 21.25ZM20.8889 21.25H14.2222C14.0253 21.25 13.8611 21.0858 13.8611 20.8889V12C13.8611 11.8031 14.0253 11.6389 14.2222 11.6389H20.8889C21.0858 11.6389 21.25 11.8031 21.25 12V20.8889C21.25 21.0858 21.0858 21.25 20.8889 21.25ZM13.8611 7.55556V3.11111C13.8611 2.91421 14.0253 2.75 14.2222 2.75H20.8889C21.0858 2.75 21.25 2.91421 21.25 3.11111V7.55556C21.25 7.75245 21.0858 7.91667 20.8889 7.91667H14.2222C14.0253 7.91667 13.8611 7.75245 13.8611 7.55556Z" stroke="#505050" stroke-width="1.5"/>
</svg>
