<svg width="21" height="24" viewBox="0 0 21 24" fill="none" xmlns="http://www.w3.org/2000/svg">
<g clip-path="url(#clip0_425_51)">
<path d="M21 3.75V6C21 8.07188 16.2984 9.75 10.5 9.75C4.70156 9.75 0 8.07188 0 6V3.75C0 1.67812 4.70156 0 10.5 0C16.2984 0 21 1.67812 21 3.75ZM18.4313 10.0641C19.4063 9.71719 20.3016 9.27188 21 8.72344V13.5C21 15.5719 16.2984 17.25 10.5 17.25C4.70156 17.25 0 15.5719 0 13.5V8.72344C0.698437 9.27656 1.59375 9.71719 2.56875 10.0641C4.67344 10.8141 7.47656 11.25 10.5 11.25C13.5234 11.25 16.3266 10.8141 18.4313 10.0641ZM0 16.2234C0.698437 16.7766 1.59375 17.2172 2.56875 17.5641C4.67344 18.3141 7.47656 18.75 10.5 18.75C13.5234 18.75 16.3266 18.3141 18.4313 17.5641C19.4063 17.2172 20.3016 16.7719 21 16.2234V20.25C21 22.3219 16.2984 24 10.5 24C4.70156 24 0 22.3219 0 20.25V16.2234Z" fill="#505050"/>
</g>
<defs>
<clipPath id="clip0_425_51">
<rect width="21" height="24" fill="white"/>
</clipPath>
</defs>
</svg>
