<svg width="24" height="24" viewBox="0 0 24 24" fill="none" xmlns="http://www.w3.org/2000/svg">
<path d="M22 5.125V7C22 8.72656 17.5223 10.125 12 10.125C6.47768 10.125 2 8.72656 2 7V5.125C2 3.39844 6.47768 2 12 2C17.5223 2 22 3.39844 22 5.125ZM19.5536 10.3867C20.4821 10.0977 21.3348 9.72656 22 9.26953V13.25C22 14.9766 17.5223 16.375 12 16.375C6.47768 16.375 2 14.9766 2 13.25V9.26953C2.66518 9.73047 3.51786 10.0977 4.44643 10.3867C6.45089 11.0117 9.12054 11.375 12 11.375C14.8795 11.375 17.5491 11.0117 19.5536 10.3867ZM2 15.5195C2.66518 15.9805 3.51786 16.3477 4.44643 16.6367C6.45089 17.2617 9.12054 17.625 12 17.625C14.8795 17.625 17.5491 17.2617 19.5536 16.6367C20.4821 16.3477 21.3348 15.9766 22 15.5195V18.875C22 20.6016 17.5223 22 12 22C6.47768 22 2 20.6016 2 18.875V15.5195Z" fill="#505050"/>
</svg>
