<svg width="24" height="24" viewBox="0 0 24 24" fill="none" xmlns="http://www.w3.org/2000/svg">
<path fill-rule="evenodd" clip-rule="evenodd" d="M3.25571 1.0548C2 2.1084 2 3.8064 2 7.2V16.8C2 20.1936 2 21.8916 3.25571 22.9452C4.51 24 6.53143 24 10.5714 24H13.4286C17.4686 24 19.49 24 20.7443 22.9452C22 21.8916 22 20.1936 22 16.8V7.2C22 3.8064 22 2.1084 20.7443 1.0548C19.49 -7.15256e-08 17.4686 0 13.4286 0H10.5714C6.53143 0 4.51 -7.15256e-08 3.25571 1.0548ZM6.64286 18C6.64286 17.7613 6.75574 17.5324 6.95667 17.3636C7.1576 17.1948 7.43013 17.1 7.71429 17.1H12C12.2842 17.1 12.5567 17.1948 12.7576 17.3636C12.9585 17.5324 13.0714 17.7613 13.0714 18C13.0714 18.2387 12.9585 18.4676 12.7576 18.6364C12.5567 18.8052 12.2842 18.9 12 18.9H7.71429C7.43013 18.9 7.1576 18.8052 6.95667 18.6364C6.75574 18.4676 6.64286 18.2387 6.64286 18ZM7.71429 12.3C7.43013 12.3 7.1576 12.3948 6.95667 12.5636C6.75574 12.7324 6.64286 12.9613 6.64286 13.2C6.64286 13.4387 6.75574 13.6676 6.95667 13.8364C7.1576 14.0052 7.43013 14.1 7.71429 14.1H16.2857C16.5699 14.1 16.8424 14.0052 17.0433 13.8364C17.2443 13.6676 17.3571 13.4387 17.3571 13.2C17.3571 12.9613 17.2443 12.7324 17.0433 12.5636C16.8424 12.3948 16.5699 12.3 16.2857 12.3H7.71429ZM6.64286 8.4C6.64286 8.16131 6.75574 7.93239 6.95667 7.7636C7.1576 7.59482 7.43013 7.5 7.71429 7.5H16.2857C16.5699 7.5 16.8424 7.59482 17.0433 7.7636C17.2443 7.93239 17.3571 8.16131 17.3571 8.4C17.3571 8.6387 17.2443 8.86761 17.0433 9.0364C16.8424 9.20518 16.5699 9.3 16.2857 9.3H7.71429C7.43013 9.3 7.1576 9.20518 6.95667 9.0364C6.75574 8.86761 6.64286 8.6387 6.64286 8.4Z" fill="#505050"/>
</svg>
