<svg width="24" height="24" viewBox="0 0 24 24" fill="none" xmlns="http://www.w3.org/2000/svg">
<path d="M11.5804 4.83911H5.68454C5.23777 4.83911 4.8093 5.01659 4.49339 5.3325C4.17748 5.64841 4 6.07688 4 6.52365V18.3154C4 18.7622 4.17748 19.1906 4.49339 19.5066C4.8093 19.8225 5.23777 19.9999 5.68454 19.9999H17.4763C17.9231 19.9999 18.3515 19.8225 18.6674 19.5066C18.9834 19.1906 19.1608 18.7622 19.1608 18.3154V12.4195" stroke="#3898DE" stroke-width="2" stroke-linecap="round" stroke-linejoin="round"/>
<path d="M16.9499 4.52332C17.285 4.18824 17.7394 4 18.2133 4C18.6871 4 19.1416 4.18824 19.4767 4.52332C19.8118 4.85839 20 5.31285 20 5.78672C20 6.26059 19.8118 6.71505 19.4767 7.05012L11.5804 14.9464L8.21134 15.7887L9.05361 12.4196L16.9499 4.52332Z" stroke="#3898DE" stroke-width="2" stroke-linecap="round" stroke-linejoin="round"/>
</svg>
