<svg width="24" height="24" viewBox="0 0 24 24" fill="none" xmlns="http://www.w3.org/2000/svg">
<path d="M14.742 4.5H20.715C21.1319 4.49996 21.5442 4.5868 21.9257 4.75499C22.3071 4.92317 22.6493 5.16902 22.9305 5.47683C23.2116 5.78465 23.4255 6.14768 23.5585 6.54276C23.6915 6.93785 23.7407 7.35633 23.703 7.7715L22.7475 18.2715C22.6798 19.0169 22.3359 19.71 21.7833 20.2148C21.2308 20.7197 20.5095 20.9997 19.761 21H4.23751C3.48907 20.9997 2.76777 20.7197 2.21521 20.2148C1.66265 19.71 1.31875 19.0169 1.25101 18.2715L0.295513 7.7715C0.232869 7.07678 0.414269 6.38194 0.808513 5.8065L0.750013 4.5C0.750013 3.70435 1.06608 2.94129 1.62869 2.37868C2.1913 1.81607 2.95436 1.5 3.75001 1.5H9.25801C10.0536 1.50017 10.8165 1.81635 11.379 2.379L12.621 3.621C13.1835 4.18365 13.9464 4.49983 14.742 4.5ZM2.25901 4.68C2.58101 4.561 2.92301 4.501 3.28501 4.5H11.379L10.3185 3.4395C10.0373 3.15818 9.65581 3.00008 9.25801 3H3.75001C3.35708 2.99993 2.9798 3.15405 2.6993 3.42922C2.4188 3.70439 2.25748 4.07864 2.25001 4.4715L2.25901 4.68Z" fill="#505050"/>
</svg>
