<svg width="50" height="50" viewBox="0 0 50 50" fill="none" xmlns="http://www.w3.org/2000/svg">
<rect width="50" height="50" rx="11" fill="url(#paint0_linear_8_456)"/>
<path d="M20.5757 24.1712V22.375H20.5819C20.6275 20.8445 20.9711 19.4272 21.5288 18.2402C21.5913 18.0356 21.6616 17.8351 21.7405 17.6396C21.2144 17.2894 20.6132 17.0735 19.9628 17.0735C17.9709 17.0735 16.3586 18.95 16.3586 21.2673C16.3586 22.8885 17.151 24.2916 18.308 24.9899L13.4226 27.2641C13.1179 27.4072 12.9174 27.751 12.9174 28.1352V31.991C12.9174 32.5079 13.2784 32.9265 13.7222 32.9265H16.9511V28.8805C16.9511 27.8336 17.5302 26.8866 18.4281 26.4661L20.5754 25.4659L20.5757 24.1712Z" fill="white"/>
<path d="M36.4388 27.9235L32.054 25.8319L30.2002 24.9474C30.2466 24.918 30.2909 24.8846 30.3365 24.8536H32.7711C32.8608 24.8536 32.9495 24.8359 33.0324 24.8016C33.1152 24.7673 33.1904 24.717 33.2538 24.6536C33.3172 24.5902 33.3675 24.515 33.4018 24.4322C33.4361 24.3493 33.4538 24.2606 33.4538 24.1709V22.3747H33.4476C33.3731 19.8724 32.5046 17.6713 31.1995 16.29C30.5107 15.5125 29.6175 14.9844 28.6182 14.8268C28.574 14.8195 28.5298 14.813 28.4854 14.8072C28.4336 14.8007 28.3821 14.7943 28.33 14.7898C28.2181 14.7794 28.1059 14.7739 27.9935 14.7733C27.882 14.7733 27.7714 14.7797 27.6614 14.7892C27.609 14.7937 27.5572 14.8002 27.5054 14.8066C27.4615 14.8122 27.4178 14.8186 27.3741 14.8256C26.3852 14.9805 25.4998 15.499 24.8135 16.2632C23.4942 17.6427 22.6147 19.8561 22.5396 22.3747H22.5335V24.1709C22.5335 24.352 22.6054 24.5256 22.7334 24.6536C22.8614 24.7816 23.0351 24.8536 23.2161 24.8536H25.6574C25.7241 24.8989 25.7904 24.9451 25.8593 24.9866L24.0836 25.8134L19.5565 27.9218C19.1631 28.106 18.9047 28.5496 18.9047 29.0449V34.0191C18.9047 34.6858 19.3692 35.2262 19.9429 35.2262H36.0443C36.618 35.2262 37.0826 34.6858 37.0826 34.0191V29.0449C37.0826 28.5512 36.8283 28.1119 36.4388 27.9235Z" fill="white"/>
<defs>
<linearGradient id="paint0_linear_8_456" x1="50" y1="25" x2="0" y2="25" gradientUnits="userSpaceOnUse">
<stop stop-color="#00D1FF"/>
<stop offset="1" stop-color="#3898DE"/>
</linearGradient>
</defs>
</svg>
