<svg width="24" height="24" viewBox="0 0 24 24" fill="none" xmlns="http://www.w3.org/2000/svg">
<path d="M0.810009 5.805L0.750009 4.5C0.750009 3.70435 1.06608 2.94129 1.62869 2.37868C2.1913 1.81607 2.95436 1.5 3.75001 1.5H9.25801C10.0536 1.50017 10.8165 1.81635 11.379 2.379L12.621 3.621C13.1835 4.18365 13.9464 4.49983 14.742 4.5H20.715C21.1319 4.49996 21.5442 4.5868 21.9257 4.75499C22.3071 4.92317 22.6493 5.16902 22.9304 5.47683C23.2116 5.78465 23.4255 6.14768 23.5585 6.54276C23.6915 6.93785 23.7407 7.35633 23.703 7.7715L22.7475 18.2715C22.6798 19.0169 22.3359 19.71 21.7833 20.2148C21.2308 20.7197 20.5095 20.9997 19.761 21H4.23901C3.49057 20.9997 2.76926 20.7197 2.2167 20.2148C1.66415 19.71 1.32024 19.0169 1.25251 18.2715L0.297009 7.7715C0.234364 7.07678 0.415765 6.38194 0.810009 5.8065V5.805ZM3.28501 6C3.07664 5.99999 2.87055 6.04339 2.67988 6.12744C2.48921 6.21149 2.31815 6.33434 2.17759 6.48816C2.03703 6.64199 1.93006 6.82341 1.8635 7.02086C1.79694 7.21832 1.77226 7.42747 1.79101 7.635L2.74651 18.135C2.78019 18.5077 2.95196 18.8543 3.22809 19.1069C3.50423 19.3594 3.8648 19.4996 4.23901 19.5H19.761C20.1352 19.4996 20.4958 19.3594 20.7719 19.1069C21.0481 18.8543 21.2198 18.5077 21.2535 18.135L22.209 7.635C22.2278 7.42747 22.2031 7.21832 22.1365 7.02086C22.07 6.82341 21.963 6.64199 21.8224 6.48816C21.6819 6.33434 21.5108 6.21149 21.3201 6.12744C21.1295 6.04339 20.9234 5.99999 20.715 6H3.28501ZM10.32 3.4395C10.1806 3.30002 10.015 3.18941 9.83277 3.114C9.65054 3.03858 9.45523 2.99984 9.25801 3H3.75001C3.35707 2.99993 2.9798 3.15405 2.6993 3.42922C2.4188 3.70439 2.25747 4.07864 2.25001 4.4715L2.25901 4.68C2.58201 4.561 2.92401 4.501 3.28501 4.5H11.379L10.32 3.4395Z" fill="#505050"/>
</svg>
