<svg width="25" height="24" viewBox="0 0 25 24" fill="none" xmlns="http://www.w3.org/2000/svg">
<g clip-path="url(#clip0_3_45)">
<path d="M23.9653 7.80938C24.1153 8.21719 23.9887 8.67188 23.6653 8.9625L21.6356 10.8094C21.6872 11.1984 21.7153 11.5969 21.7153 12C21.7153 12.4031 21.6872 12.8016 21.6356 13.1906L23.6653 15.0375C23.9887 15.3281 24.1153 15.7828 23.9653 16.1906C23.7591 16.7484 23.5106 17.2828 23.2247 17.7984L23.0044 18.1781C22.695 18.6937 22.3481 19.1812 21.9684 19.6406C21.6919 19.9781 21.2325 20.0906 20.82 19.9594L18.2091 19.1297C17.5809 19.6125 16.8872 20.0156 16.1466 20.3203L15.5606 22.9969C15.4669 23.4234 15.1387 23.7609 14.7075 23.8312C14.0606 23.9391 13.395 23.9953 12.7153 23.9953C12.0356 23.9953 11.37 23.9391 10.7231 23.8312C10.2919 23.7609 9.96375 23.4234 9.87 22.9969L9.28406 20.3203C8.54343 20.0156 7.84968 19.6125 7.22156 19.1297L4.61531 19.9641C4.20281 20.0953 3.74343 19.9781 3.46687 19.6453C3.08718 19.1859 2.74031 18.6984 2.43093 18.1828L2.21062 17.8031C1.92468 17.2875 1.67624 16.7531 1.46999 16.1953C1.31999 15.7875 1.44656 15.3328 1.76999 15.0422L3.79968 13.1953C3.74812 12.8016 3.72 12.4031 3.72 12C3.72 11.5969 3.74812 11.1984 3.79968 10.8094L1.76999 8.9625C1.44656 8.67188 1.31999 8.21719 1.46999 7.80938C1.67624 7.25156 1.92468 6.71719 2.21062 6.20156L2.43093 5.82187C2.74031 5.30625 3.08718 4.81875 3.46687 4.35938C3.74343 4.02187 4.20281 3.90937 4.61531 4.04062L7.22625 4.87031C7.85437 4.3875 8.54812 3.98438 9.28875 3.67969L9.87468 1.00312C9.96843 0.576562 10.2966 0.239062 10.7278 0.16875C11.3747 0.05625 12.0403 0 12.72 0C13.3997 0 14.0653 0.05625 14.7122 0.164062C15.1434 0.234375 15.4716 0.571875 15.5653 0.998437L16.1512 3.675C16.8919 3.97969 17.5856 4.38281 18.2137 4.86563L20.8247 4.03594C21.2372 3.90469 21.6966 4.02187 21.9731 4.35469C22.3528 4.81406 22.6997 5.30156 23.0091 5.81719L23.2294 6.19687C23.5153 6.7125 23.7637 7.24687 23.97 7.80469L23.9653 7.80938ZM12.72 15.75C13.7146 15.75 14.6684 15.3549 15.3716 14.6517C16.0749 13.9484 16.47 12.9946 16.47 12C16.47 11.0054 16.0749 10.0516 15.3716 9.34835C14.6684 8.64509 13.7146 8.25 12.72 8.25C11.7254 8.25 10.7716 8.64509 10.0683 9.34835C9.36508 10.0516 8.97 11.0054 8.97 12C8.97 12.9946 9.36508 13.9484 10.0683 14.6517C10.7716 15.3549 11.7254 15.75 12.72 15.75Z" fill="#505050"/>
</g>
<defs>
<clipPath id="clip0_3_45">
<rect width="24" height="24" fill="white" transform="translate(0.719971)"/>
</clipPath>
</defs>
</svg>
