<svg width="25" height="24" viewBox="0 0 25 24" fill="none" xmlns="http://www.w3.org/2000/svg">
<g clip-path="url(#clip0_3_47)">
<path d="M0.966008 15.4935L3.52501 12L0.964508 8.505C1.23451 7.6035 1.60951 6.72 2.10151 5.8695C2.58067 5.03776 3.15559 4.265 3.81451 3.567L8.12251 4.0365L9.86851 0.0749969C11.7417 -0.37471 13.6946 -0.376252 15.5685 0.0704969L17.3175 4.0365L21.6255 3.567C22.9504 4.9665 23.9263 6.65885 24.474 8.5065L21.915 12L24.474 15.495C24.204 16.3965 23.829 17.28 23.337 18.1305C22.8578 18.9622 22.2829 19.735 21.624 20.433L17.316 19.9635L15.57 23.925C13.6968 24.3747 11.7439 24.3762 9.87001 23.9295L8.12101 19.9635L3.81301 20.433C2.48816 19.0335 1.51222 17.3411 0.964508 15.4935M7.95901 18.4725C8.27578 18.4381 8.59527 18.5055 8.87117 18.6649C9.14707 18.8243 9.36505 19.0674 9.49351 19.359L10.929 22.614C12.114 22.815 13.3245 22.812 14.5095 22.6125L15.9435 19.359C16.0722 19.0677 16.2903 18.8249 16.5662 18.6658C16.842 18.5067 17.1614 18.4395 17.478 18.474L21.015 18.858C21.7798 17.9304 22.3851 16.8821 22.806 15.756L20.7045 12.8865C20.5161 12.6293 20.4145 12.3188 20.4145 12C20.4145 11.6812 20.5161 11.3707 20.7045 11.1135L22.8045 8.2455C22.3863 7.11827 21.7819 6.0692 21.0165 5.142L17.478 5.5275C17.1612 5.56187 16.8417 5.49448 16.5658 5.33508C16.2899 5.17569 16.072 4.93259 15.9435 4.641L14.5095 1.386C13.3243 1.18629 12.114 1.1868 10.929 1.3875L9.49501 4.641C9.36631 4.93231 9.14823 5.17509 8.87235 5.3342C8.59647 5.49331 8.27711 5.56049 7.96051 5.526L4.42351 5.142C3.6587 6.06958 3.05345 7.11787 2.63251 8.244L4.73401 11.1135C4.92242 11.3707 5.024 11.6812 5.024 12C5.024 12.3188 4.92242 12.6293 4.73401 12.8865L2.63401 15.7545C3.05401 16.881 3.65551 17.9295 4.42201 18.858L7.95901 18.4725ZM12.72 16.5C11.5265 16.5 10.3819 16.0259 9.53803 15.182C8.69411 14.3381 8.22001 13.1935 8.22001 12C8.22001 10.8065 8.69411 9.66193 9.53803 8.81802C10.3819 7.9741 11.5265 7.5 12.72 7.5C13.9135 7.5 15.0581 7.9741 15.902 8.81802C16.7459 9.66193 17.22 10.8065 17.22 12C17.22 13.1935 16.7459 14.3381 15.902 15.182C15.0581 16.0259 13.9135 16.5 12.72 16.5ZM12.72 15C13.5157 15 14.2787 14.6839 14.8413 14.1213C15.4039 13.5587 15.72 12.7956 15.72 12C15.72 11.2043 15.4039 10.4413 14.8413 9.87868C14.2787 9.31607 13.5157 9 12.72 9C11.9244 9 11.1613 9.31607 10.5987 9.87868C10.0361 10.4413 9.72001 11.2043 9.72001 12C9.72001 12.7956 10.0361 13.5587 10.5987 14.1213C11.1613 14.6839 11.9244 15 12.72 15Z" fill="#505050"/>
</g>
<defs>
<clipPath id="clip0_3_47">
<rect width="24" height="24" fill="white" transform="translate(0.720001)"/>
</clipPath>
</defs>
</svg>
