<svg width="24" height="24" viewBox="0 0 24 24" fill="none" xmlns="http://www.w3.org/2000/svg">
<path d="M21.4866 19.9687C20.0044 17.4075 17.6775 15.6103 14.9737 14.8481C16.2882 14.1799 17.3394 13.0885 17.9577 11.7498C18.576 10.411 18.7255 8.90311 18.3819 7.4691C18.0383 6.03508 17.2218 4.75856 16.064 3.84537C14.9062 2.93218 13.4746 2.43555 12 2.43555C10.5254 2.43555 9.09377 2.93218 7.93596 3.84537C6.77815 4.75856 5.96164 6.03508 5.61808 7.4691C5.27453 8.90311 5.42395 10.411 6.04226 11.7498C6.66057 13.0885 7.71173 14.1799 9.02624 14.8481C6.32249 15.6094 3.99561 17.4065 2.51343 19.9687C2.47273 20.0328 2.4454 20.1043 2.43309 20.1792C2.42077 20.2541 2.42373 20.3306 2.44178 20.4043C2.45983 20.478 2.4926 20.5473 2.53811 20.608C2.58363 20.6687 2.64095 20.7195 2.70663 20.7575C2.77231 20.7955 2.84499 20.8197 2.9203 20.8289C2.99561 20.838 3.07199 20.8319 3.14485 20.8107C3.21771 20.7896 3.28554 20.7539 3.34427 20.7059C3.40299 20.6579 3.45139 20.5985 3.48655 20.5312C5.28749 17.4197 8.46936 15.5625 12 15.5625C15.5306 15.5625 18.7125 17.4197 20.5134 20.5312C20.5486 20.5985 20.597 20.6579 20.6557 20.7059C20.7144 20.7539 20.7823 20.7896 20.8551 20.8107C20.928 20.8319 21.0044 20.838 21.0797 20.8289C21.155 20.8197 21.2277 20.7955 21.2933 20.7575C21.359 20.7195 21.4164 20.6687 21.4619 20.608C21.5074 20.5473 21.5401 20.478 21.5582 20.4043C21.5762 20.3306 21.5792 20.2541 21.5669 20.1792C21.5546 20.1043 21.5273 20.0328 21.4866 19.9687ZM6.56249 8.99998C6.56249 7.92455 6.88139 6.87326 7.47887 5.97907C8.07635 5.08488 8.92557 4.38794 9.91915 3.97639C10.9127 3.56484 12.006 3.45716 13.0608 3.66696C14.1156 3.87677 15.0844 4.39464 15.8449 5.15509C16.6053 5.91554 17.1232 6.88441 17.333 7.93918C17.5428 8.99395 17.4351 10.0873 17.0236 11.0808C16.612 12.0744 15.9151 12.9236 15.0209 13.5211C14.1267 14.1186 13.0754 14.4375 12 14.4375C10.5584 14.4357 9.17637 13.8623 8.15701 12.843C7.13766 11.8236 6.56423 10.4416 6.56249 8.99998Z" fill="#C1C1C1"/>
</svg>
