<svg width="24" height="24" viewBox="0 0 24 24" fill="none" xmlns="http://www.w3.org/2000/svg">
<path fill-rule="evenodd" clip-rule="evenodd" d="M17.25 10.5001C17.25 11.3865 17.0754 12.2643 16.7362 13.0832C16.397 13.9021 15.8998 14.6463 15.273 15.2731C14.6462 15.8999 13.9021 16.3971 13.0831 16.7363C12.2642 17.0755 11.3864 17.2501 10.5 17.2501C9.61357 17.2501 8.73583 17.0755 7.91688 16.7363C7.09794 16.3971 6.35382 15.8999 5.72703 15.2731C5.10023 14.6463 4.60303 13.9021 4.26381 13.0832C3.92459 12.2643 3.75 11.3865 3.75 10.5001C3.75 8.70988 4.46116 6.99299 5.72703 5.72712C6.9929 4.46125 8.70979 3.75009 10.5 3.75009C12.2902 3.75009 14.0071 4.46125 15.273 5.72712C16.5388 6.99299 17.25 8.70988 17.25 10.5001ZM16.02 17.6101C14.2116 19.0141 11.936 19.676 9.6567 19.4613C7.37735 19.2466 5.26552 18.1712 3.75112 16.4542C2.23673 14.7372 1.43362 12.5075 1.5053 10.2192C1.57698 7.93089 2.51805 5.7559 4.13693 4.13702C5.75581 2.51814 7.9308 1.57707 10.2191 1.50539C12.5074 1.43372 14.7371 2.23682 16.4541 3.75121C18.1711 5.26561 19.2465 7.37744 19.4612 9.65679C19.676 11.9361 19.014 14.2117 17.61 16.0201L21.795 20.2051C21.9055 20.3081 21.9942 20.4323 22.0557 20.5703C22.1172 20.7083 22.1502 20.8573 22.1529 21.0083C22.1555 21.1594 22.1278 21.3094 22.0712 21.4495C22.0146 21.5896 21.9304 21.7168 21.8236 21.8236C21.7167 21.9305 21.5895 22.0147 21.4494 22.0713C21.3093 22.1279 21.1593 22.1556 21.0082 22.153C20.8572 22.1503 20.7082 22.1172 20.5702 22.0558C20.4322 21.9943 20.308 21.9056 20.205 21.7951L16.02 17.6101Z" fill="#505050"/>
</svg>
