<svg width="20" height="20" viewBox="0 0 20 20" fill="none" xmlns="http://www.w3.org/2000/svg">
<path d="M4.46666 15.8333L9.26916 11.0308C9.40567 10.8961 9.51406 10.7356 9.58804 10.5586C9.66202 10.3816 9.70012 10.1918 9.70012 9.99996C9.70012 9.80816 9.66202 9.61827 9.58804 9.44131C9.51406 9.26436 9.40567 9.10385 9.26916 8.96913L4.46666 4.16663M10.3 15.8333L15.1025 11.0308C15.239 10.8961 15.3474 10.7356 15.4214 10.5586C15.4954 10.3816 15.5335 10.1918 15.5335 9.99996C15.5335 9.80816 15.4954 9.61827 15.4214 9.44131C15.3474 9.26436 15.239 9.10385 15.1025 8.96913L10.3 4.16663" stroke="#3898DE" stroke-width="1.5" stroke-linecap="round" stroke-linejoin="round"/>
</svg>
