<svg width="50" height="50" viewBox="0 0 50 50" fill="none" xmlns="http://www.w3.org/2000/svg">
<rect width="50" height="50" rx="11" fill="url(#paint0_linear_8_446)"/>
<path d="M22.2974 24.9476C22.5574 24.7804 22.7952 24.5808 23.005 24.3538C22.2538 23.2237 21.8181 21.8433 21.8181 20.3803C21.8181 19.4025 22.011 18.4768 22.349 17.6399C21.8228 17.2899 21.2217 17.0738 20.5712 17.0738C18.5793 17.0738 16.9671 18.9503 16.9671 21.2676C16.9671 22.8888 17.7595 24.2919 18.9164 24.9902L14.031 27.2641C13.7266 27.4072 13.5259 27.751 13.5259 28.1352V31.991C13.5259 32.5079 13.8868 32.9265 14.3306 32.9265H17.5596V28.8805C17.5596 27.8336 18.1386 26.8866 19.0366 26.4661L22.2974 24.9476Z" fill="white"/>
<path d="M36.5683 28.3387L32.1838 26.247L30.3296 25.3627C31.1395 24.8525 31.7971 24.0654 32.2275 23.1169C32.5864 22.3262 32.7721 21.468 32.7721 20.5997C32.7721 20.0881 32.691 19.6027 32.5778 19.1337C32.0262 16.8625 30.2523 15.1894 28.1232 15.1894C26.0341 15.1894 24.2871 16.803 23.7016 19.0097C23.5665 19.5157 23.4734 20.0422 23.4734 20.5997C23.4734 21.5683 23.6996 22.471 24.0839 23.2564C24.5284 24.1672 25.1872 24.9188 25.9889 25.4015L24.2129 26.2286L19.6869 28.3366C19.2935 28.5208 19.0352 28.9644 19.0352 29.4599V34.4339C19.0352 35.1005 19.4995 35.641 20.0733 35.641H36.1737C36.7472 35.641 37.2118 35.1005 37.2118 34.4339V29.4599C37.2118 28.9664 36.9576 28.5269 36.5683 28.3387Z" fill="white"/>
<defs>
<linearGradient id="paint0_linear_8_446" x1="50" y1="25" x2="0" y2="25" gradientUnits="userSpaceOnUse">
<stop stop-color="#00D1FF"/>
<stop offset="1" stop-color="#3898DE"/>
</linearGradient>
</defs>
</svg>
