<svg width="21" height="20" viewBox="0 0 21 20" fill="none" xmlns="http://www.w3.org/2000/svg">
<g clip-path="url(#clip0_37_140)">
<path d="M9.1521 6V11H9.21293L11.7272 13.47L13.1567 12.06L11.1797 10.11V6H9.1521Z" fill="#505050"/>
<path d="M10.166 1C8.58162 1.00502 7.02587 1.41688 5.65188 2.19506C4.27788 2.97323 3.13299 4.0909 2.3299 5.43804C1.5268 6.78519 1.09318 8.31539 1.07172 9.87803C1.05025 11.4407 1.44168 12.9819 2.20748 14.35L0.534668 16H6.1107V10.5L3.6978 12.88C3.06749 11.5027 2.90595 9.96119 3.23734 8.48584C3.56873 7.01049 4.37524 5.68053 5.53635 4.69471C6.69747 3.7089 8.15082 3.12016 9.67923 3.01649C11.2076 2.91282 12.729 3.29979 14.016 4.11955C15.303 4.93931 16.2865 6.14786 16.8195 7.56458C17.3525 8.98129 17.4064 10.5301 16.9732 11.9795C16.5399 13.429 15.6428 14.7012 14.4159 15.6061C13.1889 16.511 11.698 17 10.166 17V19C12.586 19 14.9068 18.0518 16.6179 16.364C18.3291 14.6761 19.2904 12.3869 19.2904 10C19.2904 7.61305 18.3291 5.32387 16.6179 3.63604C14.9068 1.94821 12.586 1 10.166 1Z" fill="#505050"/>
</g>
<defs>
<clipPath id="clip0_37_140">
<rect width="20.2765" height="20" fill="white" transform="translate(0.02771)"/>
</clipPath>
</defs>
</svg>
