<svg width="24" height="24" viewBox="0 0 24 24" fill="none" xmlns="http://www.w3.org/2000/svg">
<g clip-path="url(#clip0_519_7)">
<path d="M12 23C18.0751 23 23 18.0751 23 12C23 5.92487 18.0751 1 12 1C5.92487 1 1 5.92487 1 12C1 18.0751 5.92487 23 12 23Z" stroke="#505050" stroke-width="1.5" stroke-linecap="round" stroke-linejoin="round"/>
<path d="M7.05 17.5C9.6152 14.8138 14.3573 14.6873 16.95 17.5M14.7445 9.25C14.7445 10.768 13.5125 12 11.9912 12C11.6297 12.0006 11.2716 11.9299 10.9375 11.7919C10.6033 11.654 10.2996 11.4515 10.0438 11.1961C9.78799 10.9407 9.58503 10.6373 9.44655 10.3034C9.30808 9.96947 9.2368 9.61151 9.2368 9.25C9.2368 7.732 10.4688 6.5 11.9912 6.5C12.3526 6.49957 12.7106 6.57038 13.0446 6.70839C13.3786 6.84639 13.6822 7.04889 13.9379 7.30429C14.1936 7.5597 14.3964 7.863 14.5349 8.19686C14.6733 8.53072 14.7445 8.88859 14.7445 9.25Z" stroke="#505050" stroke-width="1.5" stroke-linecap="round" stroke-linejoin="round"/>
</g>
<defs>
<clipPath id="clip0_519_7">
<rect width="24" height="24" fill="white"/>
</clipPath>
</defs>
</svg>
