<svg width="24" height="24" viewBox="0 0 24 24" fill="none" xmlns="http://www.w3.org/2000/svg">
<g clip-path="url(#clip0_512_10)">
<path fill-rule="evenodd" clip-rule="evenodd" d="M12 1C18.0753 1 23 5.9247 23 12C23.0039 14.5387 22.1259 16.9999 20.5162 18.963L20.5382 18.9872L20.393 19.1104C19.3615 20.3305 18.076 21.3108 16.6263 21.9826C15.1766 22.6544 13.5978 23.0016 12 23C8.75501 23 5.84001 21.5953 3.82701 19.3623L3.60701 19.1093L3.46181 18.9883L3.48381 18.9619C1.87425 16.9991 0.996296 14.5383 1.00001 12C1.00001 5.9247 5.92471 1 12 1ZM12 17.5C9.95401 17.5 8.10491 18.1512 6.72771 19.0466C8.24837 20.1876 10.0989 20.803 12 20.8C13.9011 20.803 15.7516 20.1876 17.2723 19.0466C15.6986 18.0382 13.8691 17.5015 12 17.5ZM12 3.2C10.344 3.19995 8.72156 3.66719 7.3192 4.54799C5.91685 5.4288 4.7915 6.68744 4.07249 8.17923C3.35348 9.67102 3.07 11.3354 3.25463 12.9811C3.43926 14.6268 4.08451 16.187 5.11621 17.4824C6.89931 16.2031 9.33251 15.3 12 15.3C14.6675 15.3 17.1007 16.2031 18.8838 17.4824C19.9155 16.187 20.5608 14.6268 20.7454 12.9811C20.93 11.3354 20.6465 9.67102 19.9275 8.17923C19.2085 6.68744 18.0832 5.4288 16.6808 4.54799C15.2785 3.66719 13.656 3.19995 12 3.2ZM12 5.4C13.167 5.4 14.2861 5.86357 15.1113 6.68873C15.9364 7.51389 16.4 8.63305 16.4 9.8C16.4 10.9669 15.9364 12.0861 15.1113 12.9113C14.2861 13.7364 13.167 14.2 12 14.2C10.8331 14.2 9.7139 13.7364 8.88874 12.9113C8.06358 12.0861 7.60001 10.9669 7.60001 9.8C7.60001 8.63305 8.06358 7.51389 8.88874 6.68873C9.7139 5.86357 10.8331 5.4 12 5.4ZM12 7.6C11.4165 7.6 10.857 7.83178 10.4444 8.24436C10.0318 8.65694 9.80001 9.21652 9.80001 9.8C9.80001 10.3835 10.0318 10.9431 10.4444 11.3556C10.857 11.7682 11.4165 12 12 12C12.5835 12 13.1431 11.7682 13.5556 11.3556C13.9682 10.9431 14.2 10.3835 14.2 9.8C14.2 9.21652 13.9682 8.65694 13.5556 8.24436C13.1431 7.83178 12.5835 7.6 12 7.6Z" fill="#505050"/>
</g>
<defs>
<clipPath id="clip0_512_10">
<rect width="24" height="24" fill="white"/>
</clipPath>
</defs>
</svg>
