<svg width="24" height="24" viewBox="0 0 24 24" fill="none" xmlns="http://www.w3.org/2000/svg">
<path d="M12 5.83502L11.7652 5.90627L2.39023 9.04727L0.258728 9.75002L1.49998 10.1475V16.71C1.05223 16.9703 0.749978 17.445 0.749978 18C0.749978 18.3978 0.908013 18.7794 1.18932 19.0607C1.47062 19.342 1.85215 19.5 2.24998 19.5C2.6478 19.5 3.02933 19.342 3.31064 19.0607C3.59194 18.7794 3.74998 18.3978 3.74998 18C3.74998 17.445 3.44773 16.9703 2.99998 16.71V10.665L4.49998 11.1563V15C4.49998 15.615 4.87498 16.125 5.32048 16.4775C5.76598 16.8278 6.31948 17.0753 6.98398 17.2973C8.31448 17.7398 10.068 18 12 18C13.932 18 15.6855 17.7405 17.016 17.2965C17.6805 17.0753 18.234 16.8278 18.6795 16.4768C19.125 16.125 19.5 15.615 19.5 15V11.1563L21.6097 10.4528L23.7412 9.75002L21.609 9.04652L12.234 5.90627L12 5.83502ZM12 7.40627L19.0312 9.75002L12 12.0938L4.96873 9.75002L12 7.40627ZM5.99998 11.6723L11.766 13.5938L12 13.6643L12.2347 13.593L18 11.6715V15C18 15.0075 18.003 15.0945 17.7652 15.2813C17.5282 15.4688 17.103 15.705 16.5465 15.891C15.435 16.2608 13.7962 16.5 12 16.5C10.2037 16.5 8.56498 16.2615 7.45273 15.8903C6.89773 15.705 6.47173 15.468 6.23473 15.2813C5.99623 15.0938 5.99998 15.0075 5.99998 15V11.6723Z" fill="#3898DE"/>
</svg>
