<svg width="24" height="24" viewBox="0 0 24 24" fill="none" xmlns="http://www.w3.org/2000/svg">
<path d="M22.898 11.2622L16.9653 9.06623L14.75 1.80556C14.7081 1.66918 14.6236 1.54982 14.5089 1.46503C14.3942 1.38023 14.2553 1.33447 14.1126 1.33447C13.97 1.33447 13.8311 1.38023 13.7164 1.46503C13.6016 1.54982 13.5172 1.66918 13.4753 1.80556L11.2606 9.06623L5.3273 11.2622C5.19949 11.3095 5.08923 11.3947 5.01135 11.5065C4.93347 11.6183 4.89172 11.7513 4.89172 11.8876C4.89172 12.0238 4.93347 12.1568 5.01135 12.2686C5.08923 12.3804 5.19949 12.4657 5.3273 12.5129L11.2573 14.7082L13.4733 22.1902C13.5141 22.3282 13.5985 22.4492 13.7138 22.5352C13.829 22.6213 13.969 22.6677 14.1129 22.6676C14.2567 22.6676 14.3967 22.621 14.5119 22.5348C14.627 22.4486 14.7113 22.3275 14.752 22.1896L16.968 14.7076L22.8986 12.5122C23.0268 12.4654 23.1374 12.3803 23.2156 12.2684C23.2937 12.1566 23.3356 12.0234 23.3355 11.887C23.3354 11.7506 23.2934 11.6174 23.2152 11.5057C23.1369 11.3939 23.0262 11.3089 22.898 11.2622Z" fill="#FFAC33"/>
<path d="M9.56462 18.596L8.02196 18.0253L7.42196 15.8253C7.38435 15.6835 7.30093 15.5581 7.18469 15.4687C7.06845 15.3792 6.9259 15.3306 6.77921 15.3306C6.63253 15.3305 6.48993 15.3789 6.3736 15.4683C6.25726 15.5576 6.17372 15.6829 6.13596 15.8246L5.53596 18.0246L3.99396 18.5953C3.86615 18.6425 3.75589 18.7278 3.67801 18.8396C3.60013 18.9514 3.55838 19.0844 3.55838 19.2206C3.55838 19.3569 3.60013 19.4899 3.67801 19.6017C3.75589 19.7135 3.86615 19.7987 3.99396 19.846L5.52796 20.4146L6.13263 22.8293C6.16883 22.9734 6.25215 23.1013 6.36936 23.1927C6.48657 23.2841 6.63094 23.3336 6.77955 23.3336C6.92816 23.3335 7.07248 23.2838 7.1896 23.1923C7.30671 23.1008 7.3899 22.9728 7.42596 22.8286L8.03062 20.414L9.56462 19.8453C9.69286 19.7987 9.80364 19.7137 9.88192 19.602C9.9602 19.4902 10.0022 19.3571 10.0022 19.2206C10.0022 19.0842 9.9602 18.9511 9.88192 18.8393C9.80364 18.7275 9.69286 18.6426 9.56462 18.596ZM6.67262 4.15397L5.09663 3.57064L4.51263 1.99397C4.46568 1.86587 4.38053 1.75528 4.26869 1.67715C4.15685 1.59903 4.02372 1.55713 3.88729 1.55713C3.75086 1.55713 3.61773 1.59903 3.50589 1.67715C3.39405 1.75528 3.3089 1.86587 3.26196 1.99397L2.67863 3.57064L1.10196 4.15397C0.974152 4.2012 0.863886 4.28646 0.786009 4.39826C0.708131 4.51007 0.666382 4.64305 0.666382 4.7793C0.666382 4.91556 0.708131 5.04854 0.786009 5.16034C0.863886 5.27215 0.974152 5.35741 1.10196 5.40464L2.67863 5.98797L3.26196 7.56464C3.30919 7.69244 3.39445 7.80271 3.50625 7.88058C3.61806 7.95846 3.75104 8.00021 3.88729 8.00021C4.02355 8.00021 4.15653 7.95846 4.26833 7.88058C4.38014 7.80271 4.46539 7.69244 4.51263 7.56464L5.09596 5.98797L6.67262 5.40464C6.80043 5.35741 6.9107 5.27215 6.98857 5.16034C7.06645 5.04854 7.1082 4.91556 7.1082 4.7793C7.1082 4.64305 7.06645 4.51007 6.98857 4.39826C6.9107 4.28646 6.80043 4.2012 6.67262 4.15397Z" fill="#FFCC4D"/>
</svg>
