<svg width="24" height="24" viewBox="0 0 24 24" fill="none" xmlns="http://www.w3.org/2000/svg">
<path d="M17.1579 7.57895C17.1579 10.3705 14.8968 12.6316 12.1053 12.6316C9.31368 12.6316 7.05263 10.3705 7.05263 7.57895L7.19158 6.39158L3.26316 4.42105L12.1053 0L20.9474 4.42105V10.7368H19.6842V5.05263L17.0189 6.39158L17.1579 7.57895ZM12.1053 15.1579C17.6884 15.1579 22.2105 17.4189 22.2105 20.2105V22.7368C22.2105 22.7368 22.2105 24 20.9474 24C19.6842 24 4.52632 24 4.52632 24C4.52632 24 4.52632 24 3.26316 24C2 24 2 22.7368 2 22.7368V20.2105C2 17.4189 6.5221 15.1579 12.1053 15.1579Z" fill="#505050"/>
</svg>
