<svg width="24" height="24" viewBox="0 0 24 24" fill="none" xmlns="http://www.w3.org/2000/svg">
<path d="M5 4.076C4.025 4.172 3.369 4.389 2.879 4.879C2 5.757 2 7.172 2 10V14C2 16.828 2 18.243 2.879 19.121C3.369 19.611 4.025 19.828 5 19.924M19 4.076C19.975 4.172 20.631 4.389 21.121 4.879C22 5.757 22 7.172 22 10V14C22 16.828 22 18.243 21.121 19.121C20.631 19.611 19.975 19.828 19 19.924M5 8C5 5.172 5 3.757 5.879 2.879C6.757 2 8.172 2 11 2H13C15.828 2 17.243 2 18.121 2.879C19 3.757 19 5.172 19 8V16C19 18.828 19 20.243 18.121 21.121C17.243 22 15.828 22 13 22H11C8.172 22 6.757 22 5.879 21.121C5 20.243 5 18.828 5 16V8Z" stroke="#505050" stroke-width="1.5"/>
<path d="M9 13H15M9 9H15M9 17H12" stroke="#505050" stroke-width="1.5" stroke-linecap="round"/>
</svg>
