<svg width="10" height="10" viewBox="0 0 10 10" fill="none" xmlns="http://www.w3.org/2000/svg">
<g clip-path="url(#clip0_106_17)">
<path d="M5.00001 9.26894C7.33126 9.26894 9.26894 7.33536 9.26894 5.00001C9.26894 2.66876 7.32698 0.731079 4.99573 0.731079C2.66055 0.731079 0.731262 2.66876 0.731262 5.00001C0.731262 7.33536 2.66466 9.26894 5.00001 9.26894ZM4.99608 5.62787C4.77412 5.62787 4.65287 5.49804 4.6443 5.27608L4.58573 3.20894C4.57733 2.97858 4.75305 2.81554 4.99162 2.81554C5.22608 2.81554 5.4059 2.98286 5.39769 3.21304L5.33894 5.27644C5.33055 5.50233 5.20501 5.62804 4.9959 5.62804M4.9959 7.16822C4.75305 7.16822 4.52698 6.97572 4.52698 6.71608C4.52698 6.45661 4.74894 6.26429 4.9959 6.26429C5.23858 6.26429 5.46448 6.45251 5.46448 6.71608C5.46448 6.97983 5.2343 7.16822 4.9959 7.16822Z" fill="#B2BCCB"/>
</g>
<defs>
<clipPath id="clip0_106_17">
<rect width="10" height="10" fill="white"/>
</clipPath>
</defs>
</svg>
