<svg width="25" height="24" viewBox="0 0 25 24" fill="none" xmlns="http://www.w3.org/2000/svg">
<path fill-rule="evenodd" clip-rule="evenodd" d="M12.1659 21C13.3642 21 14.5507 20.7672 15.6577 20.3149C16.7647 19.8626 17.7706 19.1997 18.6179 18.364C19.4652 17.5282 20.1373 16.5361 20.5958 15.4442C21.0543 14.3522 21.2904 13.1819 21.2904 12C21.2904 10.8181 21.0543 9.64778 20.5958 8.55585C20.1373 7.46392 19.4652 6.47177 18.6179 5.63604C17.7706 4.80031 16.7647 4.13738 15.6577 3.68508C14.5507 3.23279 13.3642 3 12.1659 3C9.74598 3 7.42515 3.94821 5.71399 5.63604C4.00282 7.32387 3.0415 9.61305 3.0415 12C3.0415 14.3869 4.00282 16.6761 5.71399 18.364C7.42515 20.0518 9.74598 21 12.1659 21ZM11.9307 15.64L16.9998 9.64L15.4426 8.36L11.0832 13.519L8.8274 11.293L7.39385 12.707L10.4353 15.707L11.22 16.481L11.9307 15.64Z" fill="#00A825"/>
</svg>
