<svg width="24" height="24" viewBox="0 0 24 24" fill="none" xmlns="http://www.w3.org/2000/svg">
<path d="M12 1C5.92491 1 1 5.92491 1 12C1 18.0754 5.92491 23 12 23C18.0754 23 23 18.0754 23 12C23 5.92491 18.0754 1 12 1ZM12 21.6467C6.69284 21.6467 2.375 17.3072 2.375 12C2.375 6.6928 6.69284 2.37496 12 2.37496C17.3072 2.37496 21.625 6.69282 21.625 12C21.625 17.3071 17.3072 21.6467 12 21.6467ZM16.39 7.97503L9.9361 14.4695L7.0297 11.5631C6.76123 11.2946 6.32604 11.2946 6.05723 11.5631C5.78876 11.8316 5.78876 12.2667 6.05723 12.5352L9.46001 15.9383C9.72848 16.2065 10.1637 16.2065 10.4325 15.9383C10.4634 15.9074 10.4899 15.8737 10.514 15.8387L17.3628 8.94748C17.631 8.67901 17.631 8.24382 17.3628 7.97503C17.094 7.70656 16.6588 7.70656 16.39 7.97503Z" fill="#505050"/>
</svg>
