<svg width="24" height="24" viewBox="0 0 24 24" fill="none" xmlns="http://www.w3.org/2000/svg">
<path d="M12 23C5.92456 23 1 18.0754 1 12C1 5.92456 5.92456 1 12 1C18.0754 1 23 5.92456 23 12C23 14.9174 21.8411 17.7153 19.7782 19.7782C17.7153 21.8411 14.9174 23 12 23ZM12 2.375C6.68425 2.375 2.375 6.68425 2.375 12C2.375 17.3158 6.68425 21.625 12 21.625C17.3158 21.625 21.625 17.3158 21.625 12C21.625 9.44729 20.6109 6.99913 18.8059 5.1941C17.0009 3.38906 14.5527 2.375 12 2.375Z" fill="#505050"/>
<path d="M17 11.2857H12.7143V7H11.2857V11.2857H7V12.7143H11.2857V17H12.7143V12.7143H17V11.2857Z" fill="#505050"/>
</svg>
