<svg width="50" height="50" viewBox="0 0 50 50" fill="none" xmlns="http://www.w3.org/2000/svg">
<rect width="50" height="50" rx="11" fill="url(#paint0_linear_8_431)"/>
<g clip-path="url(#clip0_8_431)">
<path d="M19.9448 25C18.4984 25.0446 17.3154 25.6161 16.3957 26.7143H14.6011C13.8689 26.7143 13.2529 26.5335 12.7529 26.1719C12.2529 25.8103 12.0029 25.2812 12.0029 24.5848C12.0029 21.433 12.5564 19.8571 13.6636 19.8571C13.7172 19.8571 13.9114 19.9509 14.2462 20.1384C14.581 20.3259 15.0163 20.5156 15.552 20.7076C16.0877 20.8996 16.6189 20.9955 17.1457 20.9955C17.7439 20.9955 18.3377 20.8929 18.927 20.6875C18.8823 21.0179 18.86 21.3125 18.86 21.5714C18.86 22.8125 19.2216 23.9554 19.9448 25ZM34.2886 33.5312C34.2886 34.6027 33.9627 35.4487 33.3109 36.0692C32.6591 36.6897 31.793 37 30.7127 37H19.0073C17.927 37 17.0609 36.6897 16.4091 36.0692C15.7573 35.4487 15.4314 34.6027 15.4314 33.5312C15.4314 33.058 15.4471 32.596 15.4783 32.1451C15.5096 31.6942 15.5721 31.2076 15.6658 30.6853C15.7596 30.1629 15.8779 29.6786 16.0207 29.2321C16.1636 28.7857 16.3555 28.3504 16.5966 27.9263C16.8377 27.5022 17.1145 27.1406 17.427 26.8415C17.7395 26.5424 18.1212 26.3036 18.5721 26.125C19.023 25.9464 19.5207 25.8571 20.0654 25.8571C20.1547 25.8571 20.3466 25.9531 20.6413 26.1451C20.9359 26.3371 21.2618 26.5513 21.6189 26.7879C21.9761 27.0246 22.4538 27.2388 23.052 27.4308C23.6502 27.6228 24.2529 27.7188 24.86 27.7188C25.4672 27.7188 26.0698 27.6228 26.668 27.4308C27.2663 27.2388 27.7439 27.0246 28.1011 26.7879C28.4582 26.5513 28.7841 26.3371 29.0788 26.1451C29.3734 25.9531 29.5654 25.8571 29.6547 25.8571C30.1993 25.8571 30.6971 25.9464 31.148 26.125C31.5989 26.3036 31.9805 26.5424 32.293 26.8415C32.6055 27.1406 32.8823 27.5022 33.1234 27.9263C33.3645 28.3504 33.5564 28.7857 33.6993 29.2321C33.8422 29.6786 33.9605 30.1629 34.0542 30.6853C34.148 31.2076 34.2105 31.6942 34.2417 32.1451C34.273 32.596 34.2886 33.058 34.2886 33.5312ZM20.5743 16.4286C20.5743 17.375 20.2395 18.183 19.5698 18.8527C18.9002 19.5223 18.0922 19.8571 17.1457 19.8571C16.1993 19.8571 15.3913 19.5223 14.7216 18.8527C14.052 18.183 13.7172 17.375 13.7172 16.4286C13.7172 15.4821 14.052 14.6741 14.7216 14.0045C15.3913 13.3348 16.1993 13 17.1457 13C18.0922 13 18.9002 13.3348 19.5698 14.0045C20.2395 14.6741 20.5743 15.4821 20.5743 16.4286ZM30.0029 21.5714C30.0029 22.9911 29.5006 24.2031 28.4962 25.2076C27.4917 26.2121 26.2797 26.7143 24.86 26.7143C23.4404 26.7143 22.2283 26.2121 21.2239 25.2076C20.2194 24.2031 19.7172 22.9911 19.7172 21.5714C19.7172 20.1518 20.2194 18.9397 21.2239 17.9353C22.2283 16.9308 23.4404 16.4286 24.86 16.4286C26.2797 16.4286 27.4917 16.9308 28.4962 17.9353C29.5006 18.9397 30.0029 20.1518 30.0029 21.5714ZM37.7172 24.5848C37.7172 25.2812 37.4672 25.8103 36.9672 26.1719C36.4672 26.5335 35.8511 26.7143 35.1189 26.7143H33.3243C32.4047 25.6161 31.2216 25.0446 29.7752 25C30.4984 23.9554 30.86 22.8125 30.86 21.5714C30.86 21.3125 30.8377 21.0179 30.793 20.6875C31.3823 20.8929 31.9761 20.9955 32.5743 20.9955C33.1011 20.9955 33.6323 20.8996 34.168 20.7076C34.7038 20.5156 35.139 20.3259 35.4739 20.1384C35.8087 19.9509 36.0029 19.8571 36.0564 19.8571C37.1636 19.8571 37.7172 21.433 37.7172 24.5848ZM36.0029 16.4286C36.0029 17.375 35.668 18.183 34.9984 18.8527C34.3288 19.5223 33.5207 19.8571 32.5743 19.8571C31.6279 19.8571 30.8198 19.5223 30.1502 18.8527C29.4805 18.183 29.1457 17.375 29.1457 16.4286C29.1457 15.4821 29.4805 14.6741 30.1502 14.0045C30.8198 13.3348 31.6279 13 32.5743 13C33.5207 13 34.3288 13.3348 34.9984 14.0045C35.668 14.6741 36.0029 15.4821 36.0029 16.4286Z" fill="white"/>
</g>
<defs>
<linearGradient id="paint0_linear_8_431" x1="50" y1="25" x2="0" y2="25" gradientUnits="userSpaceOnUse">
<stop stop-color="#00D1FF"/>
<stop offset="1" stop-color="#3898DE"/>
</linearGradient>
<clipPath id="clip0_8_431">
<rect width="25.72" height="24" fill="white" transform="translate(12 13)"/>
</clipPath>
</defs>
</svg>
