<svg width="25" height="24" viewBox="0 0 25 24" fill="none" xmlns="http://www.w3.org/2000/svg">
<path d="M4.72 7H20.72M10.72 11V17M14.72 11V17M5.72 7L6.72 19C6.72 19.5304 6.93071 20.0391 7.30579 20.4142C7.68086 20.7893 8.18957 21 8.72 21H16.72C17.2504 21 17.7591 20.7893 18.1342 20.4142C18.5093 20.0391 18.72 19.5304 18.72 19L19.72 7M9.72 7V4C9.72 3.73478 9.82536 3.48043 10.0129 3.29289C10.2004 3.10536 10.4548 3 10.72 3H14.72C14.9852 3 15.2396 3.10536 15.4271 3.29289C15.6146 3.48043 15.72 3.73478 15.72 4V7" stroke="#505050" stroke-width="2" stroke-linecap="round" stroke-linejoin="round"/>
</svg>
