<svg width="24" height="24" viewBox="0 0 24 24" fill="none" xmlns="http://www.w3.org/2000/svg">
<path d="M16.2191 17.1138L15.7091 20.0728C15.6432 20.3099 15.5039 20.52 15.3112 20.673C15.1185 20.826 14.8822 20.9139 14.6364 20.9243C14.3905 20.9346 14.1477 20.8668 13.9429 20.7305C13.738 20.5942 13.5816 20.3965 13.4961 20.1658L10.7081 12.2838C10.6317 12.0755 10.6165 11.8496 10.6642 11.633C10.7119 11.4163 10.8205 11.2177 10.9773 11.0607C11.1341 10.9037 11.3325 10.7948 11.5492 10.7468C11.7658 10.6988 11.9916 10.7137 12.2001 10.7898L20.2361 13.5778C20.4747 13.6602 20.6802 13.818 20.8213 14.0273C20.9625 14.2367 21.0318 14.4863 21.0187 14.7384C21.0056 14.9906 20.9108 15.2317 20.7487 15.4253C20.5866 15.6189 20.366 15.7546 20.1201 15.8118L17.0081 16.3218C16.8206 16.3768 16.65 16.4781 16.512 16.6163C16.3739 16.7546 16.2729 16.9253 16.2181 17.1128" stroke="#505050" stroke-width="1.5" stroke-linecap="round" stroke-linejoin="round"/>
<path d="M21.502 9.31393C21.0018 7.71857 20.0987 6.27911 18.8799 5.13451C17.6612 3.9899 16.168 3.1788 14.5444 2.77949C12.9208 2.38019 11.2218 2.40617 9.61115 2.85492C8.00054 3.30367 6.53282 4.16004 5.34964 5.34137C4.16647 6.5227 3.30782 7.98909 2.85655 9.599C2.40529 11.2089 2.37667 12.908 2.77344 14.5321C3.17022 16.1563 3.97899 17.6508 5.1217 18.8713C6.26441 20.0918 7.70245 20.9972 9.29703 21.4999" stroke="#505050" stroke-width="1.5" stroke-linecap="round"/>
</svg>
