<svg width="35" height="40" viewBox="0 0 35 40" fill="none" xmlns="http://www.w3.org/2000/svg">
<path d="M17.5 6.03125C14.1624 6.03125 10.8998 7.02095 8.12476 8.8752C5.34968 10.7295 3.18677 13.365 1.90954 16.4485C0.632312 19.532 0.29813 22.925 0.949256 26.1984C1.60038 29.4718 3.20757 32.4787 5.56758 34.8387C7.92759 37.1987 10.9344 38.8059 14.2079 39.457C17.4813 40.1081 20.8743 39.7739 23.9578 38.4967C27.0413 37.2195 29.6768 35.0566 31.5311 32.2815C33.3853 29.5064 34.375 26.2438 34.375 22.9063C34.3699 18.4323 32.5904 14.143 29.4268 10.9795C26.2632 7.81591 21.974 6.03637 17.5 6.03125ZM17.5 36.9688C14.7187 36.9688 11.9999 36.144 9.6873 34.5988C7.37474 33.0536 5.57231 30.8573 4.50795 28.2877C3.44359 25.7182 3.16511 22.8907 3.70771 20.1628C4.25032 17.4349 5.58964 14.9292 7.55632 12.9626C9.52299 10.9959 12.0287 9.65656 14.7566 9.11396C17.4844 8.57135 20.3119 8.84984 22.8815 9.9142C25.4511 10.9786 27.6473 12.781 29.1925 15.0935C30.7378 17.4061 31.5625 20.125 31.5625 22.9063C31.5583 26.6346 30.0754 30.209 27.4391 32.8453C24.8027 35.4816 21.2283 36.9646 17.5 36.9688ZM25.5262 14.8801C25.6569 15.0107 25.7607 15.1658 25.8314 15.3365C25.9022 15.5072 25.9386 15.6902 25.9386 15.875C25.9386 16.0598 25.9022 16.2428 25.8314 16.4135C25.7607 16.5842 25.6569 16.7393 25.5262 16.8699L18.4949 23.9012C18.3643 24.0318 18.2092 24.1355 18.0385 24.2062C17.8677 24.2769 17.6848 24.3133 17.5 24.3133C17.3152 24.3133 17.1323 24.2769 16.9616 24.2062C16.7909 24.1355 16.6357 24.0318 16.5051 23.9012C16.3744 23.7705 16.2708 23.6154 16.2001 23.4447C16.1294 23.274 16.093 23.091 16.093 22.9063C16.093 22.7215 16.1294 22.5385 16.2001 22.3678C16.2708 22.1971 16.3744 22.042 16.5051 21.9113L23.5363 14.8801C23.6669 14.7493 23.822 14.6456 23.9927 14.5748C24.1635 14.5041 24.3465 14.4676 24.5313 14.4676C24.7161 14.4676 24.8991 14.5041 25.0698 14.5748C25.2405 14.6456 25.3956 14.7493 25.5262 14.8801ZM11.875 1.8125C11.875 1.43954 12.0232 1.08185 12.2869 0.818131C12.5506 0.554408 12.9083 0.40625 13.2813 0.40625H21.7188C22.0917 0.40625 22.4494 0.554408 22.7131 0.818131C22.9769 1.08185 23.125 1.43954 23.125 1.8125C23.125 2.18546 22.9769 2.54315 22.7131 2.80687C22.4494 3.07059 22.0917 3.21875 21.7188 3.21875H13.2813C12.9083 3.21875 12.5506 3.07059 12.2869 2.80687C12.0232 2.54315 11.875 2.18546 11.875 1.8125Z" fill="white"/>
</svg>
