<svg width="24" height="24" viewBox="0 0 24 24" fill="none" xmlns="http://www.w3.org/2000/svg">
<g clip-path="url(#clip0_461_17)">
<path d="M13.4476 21.061C11.9442 20.7986 11.3735 18.1678 10.7437 14.4396C9.07997 14.7007 6.7957 15.1718 4.33842 15.7014C3.93778 16.751 3.2528 18.285 2.28352 20.304C1.74141 21.4695 -0.0226393 20.9968 0.000235677 19.7632C0.000235677 19.3786 0.605017 17.9167 1.81481 15.377C1.30092 14.4554 1.76044 13.6224 2.78822 13.4061C4.87486 9.6704 8.65838 3.14325 9.79434 2.93896C11.4008 2.9399 11.0933 5.10239 11.8493 8.2987L13.6399 16.6507C14.391 18.8394 15.5822 20.6693 13.4476 21.061ZM9.20545 7.32525L5.76858 12.8653C6.73786 12.6171 8.20809 12.3166 10.179 11.964L9.20545 7.32525ZM19.7336 5.46286C19.677 6.25387 19.6221 7.18162 19.6615 8.15475C21.8857 8.24779 23.9614 7.74478 23.9998 9.26029C24.0123 9.8332 23.5388 10.3902 22.9663 10.3659C21.9253 10.2025 20.8223 10.3331 19.6855 10.2937V13.1178C19.7849 14.61 17.4207 14.5656 17.5465 13.1178L17.5224 10.3418C15.055 10.5122 13.5851 10.504 13.6048 9.32043C13.6642 7.9154 14.5268 8.45236 17.5224 8.20275C17.4878 7.09518 17.4873 6.05634 17.6186 5.28257C17.8999 3.93721 19.7273 4.28104 19.7336 5.46286Z" fill="#505050"/>
</g>
<defs>
<clipPath id="clip0_461_17">
<rect width="24" height="24" fill="white"/>
</clipPath>
</defs>
</svg>
