<svg width="24" height="24" viewBox="0 0 24 24" fill="none" xmlns="http://www.w3.org/2000/svg">
<path d="M7.80779 15.75C7.71821 15.75 7.62862 15.7637 7.54317 15.7926C7.0574 15.957 6.54652 16.0625 6.00865 16.0625C5.47079 16.0625 4.95991 15.957 4.47377 15.7926C4.38831 15.7637 4.2991 15.75 4.20952 15.75C1.88339 15.75 -0.000830912 17.7219 0.0115381 20.1492C0.0167856 21.175 -0.173498 22 0.811153 22H11.2062C12.1908 22 12.0005 21.175 12.0058 20.1492C12.0181 17.7219 10.1339 15.75 7.80779 15.75ZM6.00865 14.5C7.99595 14.5 9.60692 12.8211 9.60692 10.75C9.60692 8.67891 7.99595 7 6.00865 7C4.02136 7 2.41038 8.67891 2.41038 10.75C2.41038 12.8211 4.02136 14.5 6.00865 14.5ZM22.2009 2H7.80779C6.81564 2 6.00865 2.86914 6.00865 3.93711V5.75C6.88648 5.75 7.69909 6.01484 8.4075 6.44531V4.5H21.6012V15.75H19.2023V13.25H14.4046V15.75H11.547C12.2629 16.402 12.7884 17.2629 13.0346 18.25H22.2009C23.193 18.25 24 17.3809 24 16.3129V3.93711C24 2.86914 23.193 2 22.2009 2Z" fill="#505050"/>
</svg>
