<svg width="50" height="50" viewBox="0 0 50 50" fill="none" xmlns="http://www.w3.org/2000/svg">
<rect width="50" height="50" rx="11" fill="url(#paint0_linear_106_10)"/>
<g clip-path="url(#clip0_106_10)">
<path d="M19.4714 29.5C19.3626 29.5 19.2537 29.5164 19.1499 29.5511C18.5598 29.7484 17.9391 29.875 17.2857 29.875C16.6323 29.875 16.0116 29.7484 15.421 29.5511C15.3172 29.5164 15.2088 29.5 15.1 29.5C12.274 29.5 9.98496 31.8662 9.99998 34.7791C10.0064 36.01 10.9895 37 12.1857 37H22.3857C23.5819 37 24.565 36.01 24.5714 34.7791C24.5864 31.8662 22.2974 29.5 19.4714 29.5ZM17.2857 28C19.7 28 21.6571 25.9853 21.6571 23.5C21.6571 21.0147 19.7 19 17.2857 19C14.8714 19 12.9143 21.0147 12.9143 23.5C12.9143 25.9853 14.8714 28 17.2857 28ZM36.9571 13H19.4714C18.2661 13 17.2857 14.043 17.2857 15.3245V17.5C18.3521 17.5 19.3394 17.8178 20.2 18.3344V16H36.2286V29.5H33.3143V26.5H27.4857V29.5H24.0141C24.8838 30.2823 25.5222 31.3155 25.8214 32.5H36.9571C38.1625 32.5 39.1428 31.457 39.1428 30.1755V15.3245C39.1428 14.043 38.1625 13 36.9571 13Z" fill="white"/>
</g>
<defs>
<linearGradient id="paint0_linear_106_10" x1="50" y1="25" x2="0" y2="25" gradientUnits="userSpaceOnUse">
<stop stop-color="#00D1FF"/>
<stop offset="1" stop-color="#3898DE"/>
</linearGradient>
<clipPath id="clip0_106_10">
<rect width="29.1429" height="24" fill="white" transform="translate(10 13)"/>
</clipPath>
</defs>
</svg>
