<svg width="25" height="24" viewBox="0 0 25 24" fill="none" xmlns="http://www.w3.org/2000/svg">
<path d="M12.6667 0C15.6133 0 18 2.38667 18 5.33333C18 8.28 15.6133 10.6667 12.6667 10.6667C9.72 10.6667 7.33333 8.28 7.33333 5.33333C7.33333 2.38667 9.72 0 12.6667 0ZM18 14.0533C18 15.4667 17.6267 18.76 15.08 22.44L14 16L15.2533 13.4933C14.4267 13.4 13.56 13.3333 12.6667 13.3333C11.7733 13.3333 10.9067 13.4 10.08 13.4933L11.3333 16L10.2533 22.44C7.70667 18.76 7.33333 15.4667 7.33333 14.0533C4.14667 14.9867 2 16.6667 2 18.6667V22.6667C2 22.6667 2.08008 24 3.04004 24C4 24 4.37337 24 4.37337 24H21.04C21.04 24 21.4134 24 22.3734 24C23.3333 24 23.3333 22.6667 23.3333 22.6667V18.6667C23.3333 16.6667 21.2 14.9867 18 14.0533Z" fill="#505050"/>
</svg>
