<svg width="24" height="24" viewBox="0 0 24 24" fill="none" xmlns="http://www.w3.org/2000/svg">
<path d="M8.47003 12C9.71124 12 10.9016 11.4732 11.7793 10.5355C12.657 9.59785 13.15 8.32608 13.15 7C13.15 5.67392 12.657 4.40215 11.7793 3.46447C10.9016 2.52678 9.71124 2 8.47003 2C7.22882 2 6.03844 2.52678 5.16077 3.46447C4.2831 4.40215 3.79003 5.67392 3.79003 7C3.79003 8.32608 4.2831 9.59785 5.16077 10.5355C6.03844 11.4732 7.22882 12 8.47003 12ZM6.79912 13.875C3.19772 13.875 0.280029 16.9922 0.280029 20.8398C0.280029 21.4805 0.766311 22 1.36594 22H14.6345C14.437 21.6328 14.32 21.207 14.32 20.75V15.75C14.32 15.668 14.3237 15.5859 14.331 15.5039C13.1976 14.4883 11.7351 13.875 10.1409 13.875H6.79912ZM19.585 11.375C20.2322 11.375 20.755 11.9336 20.755 12.625V14.5H18.415V12.625C18.415 11.9336 18.9379 11.375 19.585 11.375ZM16.66 12.625V14.5C16.0129 14.5 15.49 15.0586 15.49 15.75V20.75C15.49 21.4414 16.0129 22 16.66 22H22.51C23.1572 22 23.68 21.4414 23.68 20.75V15.75C23.68 15.0586 23.1572 14.5 22.51 14.5V12.625C22.51 10.8984 21.2011 9.5 19.585 9.5C17.969 9.5 16.66 10.8984 16.66 12.625Z" fill="#505050"/>
</svg>
