<svg width="24" height="24" viewBox="0 0 24 24" fill="none" xmlns="http://www.w3.org/2000/svg">
<g clip-path="url(#clip0_422_2)">
<path d="M14.4802 2.40756C14.3641 1.90644 14.0747 1.46243 13.6631 1.15391C13.2515 0.84538 12.7441 0.692156 12.2305 0.721275C11.717 0.750394 11.2302 0.959983 10.8561 1.31306C10.482 1.66613 10.2446 2.14 10.1859 2.65104C10.1271 3.16208 10.2508 3.67745 10.535 4.1062C10.8192 4.53495 11.2458 4.84952 11.7394 4.99441C12.2329 5.1393 12.7618 5.10519 13.2327 4.89811C13.7036 4.69102 14.0862 4.32427 14.313 3.86256C15.6937 4.17697 16.9772 4.82253 18.0528 5.74356C19.1284 6.66459 19.9638 7.83344 20.487 9.14931L21.8183 8.62581C21.202 7.06506 20.2097 5.68074 18.9295 4.59591C17.6493 3.51108 16.121 2.75936 14.4802 2.40756ZM12.3638 3.63606C12.2663 3.63919 12.1692 3.6227 12.0783 3.58757C11.9873 3.55243 11.9043 3.49938 11.8343 3.43155C11.7643 3.36372 11.7086 3.2825 11.6705 3.19272C11.6325 3.10295 11.6129 3.00644 11.6129 2.90894C11.6129 2.81143 11.6325 2.71493 11.6705 2.62515C11.7086 2.53537 11.7643 2.45415 11.8343 2.38632C11.9043 2.31849 11.9873 2.26544 12.0783 2.2303C12.1692 2.19517 12.2663 2.17868 12.3638 2.18181C12.5567 2.18181 12.7417 2.25846 12.8782 2.39489C13.0146 2.53132 13.0913 2.71637 13.0913 2.90931C13.0913 3.10226 13.0146 3.2873 12.8782 3.42373C12.7417 3.56016 12.5567 3.63606 12.3638 3.63606ZM9.1635 4.24056L8.62575 2.91006C7.065 3.5263 5.68068 4.51862 4.59585 5.79879C3.51102 7.07897 2.7593 8.60735 2.4075 10.2481C1.90637 10.3642 1.46237 10.6536 1.15385 11.0652C0.845319 11.4768 0.692095 11.9842 0.721214 12.4978C0.750333 13.0113 0.959922 13.4981 1.313 13.8722C1.66607 14.2463 2.13994 14.4837 2.65098 14.5424C3.16202 14.6012 3.67739 14.4775 4.10614 14.1933C4.53489 13.9091 4.84946 13.4825 4.99435 12.989C5.13924 12.4954 5.10513 11.9665 4.89805 11.4956C4.69096 11.0247 4.32421 10.6421 3.8625 10.4153C4.1782 9.03296 4.82587 7.74832 5.74949 6.67246C6.67311 5.5966 7.84489 4.76191 9.1635 4.24056ZM2.9085 13.0921C2.81296 13.0921 2.71836 13.0732 2.6301 13.0367C2.54183 13.0001 2.46163 12.9465 2.39408 12.879C2.32653 12.8114 2.27294 12.7312 2.23638 12.643C2.19982 12.5547 2.181 12.4601 2.181 12.3646C2.181 12.269 2.19982 12.1744 2.23638 12.0862C2.27294 11.9979 2.32653 11.9177 2.39408 11.8501C2.46163 11.7826 2.54183 11.729 2.6301 11.6924C2.71836 11.6559 2.81296 11.6371 2.9085 11.6371C3.10145 11.6371 3.28649 11.7137 3.42292 11.8501C3.55935 11.9866 3.636 12.1716 3.636 12.3646C3.636 12.5575 3.55935 12.7425 3.42292 12.879C3.28649 13.0154 3.10145 13.0921 2.9085 13.0921ZM12.3638 19.6373C11.958 19.6386 11.5607 19.753 11.2164 19.9676C10.872 20.1823 10.5944 20.4886 10.4145 20.8523C9.03357 20.5379 7.74986 19.8923 6.67412 18.9711C5.59837 18.05 4.76289 16.8809 4.23975 15.5648L2.90925 16.1026C3.5275 17.6659 4.52313 19.052 5.80733 20.137C7.09152 21.222 8.62433 21.9723 10.269 22.3208C10.3635 22.7212 10.5692 23.0868 10.8624 23.3753C11.1557 23.6638 11.5245 23.8636 11.9264 23.9516C12.3283 24.0396 12.7468 24.0122 13.1338 23.8726C13.5208 23.733 13.8604 23.4869 14.1136 23.1626C14.3667 22.8383 14.523 22.449 14.5645 22.0397C14.606 21.6304 14.531 21.2178 14.3481 20.8493C14.1652 20.4808 13.8818 20.1715 13.5308 19.957C13.1797 19.7426 12.7751 19.6318 12.3638 19.6373ZM12.3638 22.5466C12.1708 22.5466 11.9858 22.4699 11.8493 22.3335C11.7129 22.197 11.6363 22.012 11.6363 21.8191C11.6363 21.6261 11.7129 21.4411 11.8493 21.3046C11.9858 21.1682 12.1708 21.0916 12.3638 21.0916C12.5567 21.0916 12.7417 21.1682 12.8782 21.3046C13.0146 21.4411 13.0913 21.6261 13.0913 21.8191C13.0913 22.012 13.0146 22.197 12.8782 22.3335C12.7417 22.4699 12.5567 22.5466 12.3638 22.5466ZM24 12.3638C24.0013 11.9744 23.8984 11.5917 23.702 11.2555C23.5056 10.9192 23.2228 10.6417 22.8829 10.4516C22.5431 10.2615 22.1585 10.1658 21.7692 10.1744C21.3799 10.183 21 10.2956 20.6689 10.5006C20.3377 10.7055 20.0675 10.9953 19.8861 11.3399C19.7048 11.6845 19.6189 12.0714 19.6375 12.4604C19.656 12.8493 19.7783 13.2263 19.9917 13.552C20.205 13.8778 20.5016 14.1406 20.8508 14.3131C20.5363 15.6939 19.8906 16.9774 18.9694 18.053C18.0483 19.1286 16.8793 19.964 15.5633 20.4871L16.1018 21.8183C17.6651 21.2001 19.0512 20.2044 20.1362 18.9202C21.2212 17.636 21.9715 16.1032 22.32 14.4586C22.7934 14.3466 23.2159 14.0796 23.5203 13.7001C23.8247 13.3206 23.9935 12.8503 24 12.3638ZM21.8175 13.0913C21.6246 13.0913 21.4395 13.0147 21.3031 12.8782C21.1666 12.7418 21.09 12.5568 21.09 12.3638C21.09 12.1709 21.1666 11.9858 21.3031 11.8494C21.4395 11.713 21.6246 11.6363 21.8175 11.6363C22.0104 11.6363 22.1955 11.713 22.3319 11.8494C22.4684 11.9858 22.545 12.1709 22.545 12.3638C22.545 12.5568 22.4684 12.7418 22.3319 12.8782C22.1955 13.0147 22.0104 13.0913 21.8175 13.0913Z" fill="#505050"/>
<path d="M14.3925 12.2625C14.8063 11.8584 15.0903 11.3402 15.2082 10.774C15.3261 10.2078 15.2725 9.61932 15.0544 9.08369C14.8362 8.54805 14.4634 8.08959 13.9835 7.76685C13.5036 7.44411 12.9383 7.27173 12.36 7.27173C11.7817 7.27173 11.2164 7.44411 10.7365 7.76685C10.2566 8.08959 9.88375 8.54805 9.66562 9.08369C9.44748 9.61932 9.39394 10.2078 9.51183 10.774C9.62973 11.3402 9.9137 11.8584 10.3275 12.2625C9.83506 12.5953 9.43169 13.0438 9.15268 13.5686C8.87367 14.0934 8.72751 14.6786 8.727 15.273V16.7272H15.9997V15.2722C15.9985 14.6773 15.8513 14.0917 15.5711 13.5668C15.2909 13.0419 14.8862 12.5946 14.3925 12.2625ZM10.9087 10.1812C10.9087 9.99016 10.9464 9.80096 11.0195 9.62443C11.0926 9.4479 11.1998 9.28751 11.3349 9.1524C11.47 9.01729 11.6304 8.91011 11.8069 8.83699C11.9835 8.76387 12.1727 8.72624 12.3637 8.72624C12.5548 8.72624 12.744 8.76387 12.9206 8.83699C13.0971 8.91011 13.2575 9.01729 13.3926 9.1524C13.5277 9.28751 13.6349 9.4479 13.708 9.62443C13.7811 9.80096 13.8187 9.99016 13.8187 10.1812C13.8187 10.5671 13.6655 10.9372 13.3926 11.2101C13.1197 11.4829 12.7496 11.6362 12.3637 11.6362C11.9779 11.6362 11.6078 11.4829 11.3349 11.2101C11.062 10.9372 10.9087 10.5671 10.9087 10.1812ZM10.1812 15.2722C10.1759 14.9823 10.2283 14.6941 10.3356 14.4247C10.4428 14.1552 10.6027 13.9099 10.8059 13.7029C11.009 13.4959 11.2514 13.3315 11.5188 13.2193C11.7863 13.1071 12.0734 13.0493 12.3634 13.0493C12.6534 13.0493 12.9405 13.1071 13.2079 13.2193C13.4753 13.3315 13.7177 13.4959 13.9209 13.7029C14.124 13.9099 14.2839 14.1552 14.3912 14.4247C14.4984 14.6941 14.5509 14.9823 14.5455 15.2722H10.1812Z" fill="#505050"/>
</g>
<defs>
<clipPath id="clip0_422_2">
<rect width="24" height="24" fill="white"/>
</clipPath>
</defs>
</svg>
