<svg width="24" height="24" viewBox="0 0 24 24" fill="none" xmlns="http://www.w3.org/2000/svg">
<path d="M8.4 2C9.67304 2 10.8939 2.52689 11.7941 3.46475C12.6943 4.40261 13.2 5.67463 13.2 7.00097C13.2 8.32731 12.6943 9.59933 11.7941 10.5372C10.8939 11.4751 9.67304 12.0019 8.4 12.0019C7.12696 12.0019 5.90606 11.4751 5.00589 10.5372C4.10571 9.59933 3.6 8.32731 3.6 7.00097C3.6 5.67463 4.10571 4.40261 5.00589 3.46475C5.90606 2.52689 7.12696 2 8.4 2ZM6.68625 13.8773H10.1138C10.5563 13.8773 10.9913 13.9242 11.4075 14.0062C11.3288 14.729 11.685 15.3971 12.225 15.7566C11.6025 16.1707 11.2238 16.9912 11.475 17.839C11.625 18.343 11.8275 18.8353 12.09 19.308C12.3525 19.7808 12.66 20.2106 13.005 20.5974C13.5938 21.2576 14.49 21.3163 15.15 20.9373V20.9724C15.15 21.3319 15.2513 21.6952 15.4462 22H1.11375C0.49875 22.0039 0 21.4843 0 20.8435C0 16.9951 2.9925 13.8773 6.68625 13.8773ZM16.35 10.5251C16.35 10.2516 16.5188 10.0055 16.7738 9.94686C17.1675 9.85309 17.58 9.8023 18 9.8023C18.42 9.8023 18.8325 9.85309 19.2263 9.94686C19.4813 10.0055 19.65 10.2516 19.65 10.5251V11.2166C19.65 11.5214 19.83 11.7949 20.085 11.9472C20.34 12.0996 20.6513 12.1231 20.9025 11.9707L21.42 11.662C21.6488 11.5253 21.9338 11.5565 22.1138 11.7558C22.3988 12.0723 22.65 12.4278 22.8675 12.8185C23.085 13.2092 23.2537 13.6155 23.3738 14.0297C23.4525 14.2914 23.3325 14.5649 23.1038 14.7017L22.5638 15.026C22.32 15.1705 22.1888 15.4518 22.1888 15.7449C22.1888 16.0379 22.32 16.3192 22.5638 16.4637L23.1038 16.788C23.3325 16.9248 23.4487 17.1983 23.3738 17.46C23.25 17.8742 23.0813 18.2805 22.8675 18.6712C22.6538 19.0619 22.3988 19.4174 22.1138 19.7339C21.9338 19.9332 21.645 19.9644 21.42 19.8277L20.9025 19.519C20.6513 19.3667 20.3363 19.3901 20.085 19.5425C19.83 19.6948 19.65 19.9683 19.65 20.2731V20.9646C19.65 21.2381 19.4813 21.4843 19.2263 21.5429C18.8325 21.6366 18.42 21.6874 18 21.6874C17.58 21.6874 17.1675 21.6366 16.7738 21.5429C16.5188 21.4843 16.35 21.2381 16.35 20.9646V20.277C16.35 19.9683 16.1663 19.6948 15.9113 19.5386C15.6562 19.3862 15.3413 19.3627 15.0863 19.5151L14.58 19.8199C14.3512 19.9566 14.0662 19.9254 13.8863 19.7261C13.6012 19.4096 13.35 19.0541 13.1325 18.6634C12.915 18.2727 12.7463 17.8664 12.6263 17.4522C12.5475 17.1905 12.6675 16.917 12.8963 16.7802L13.4213 16.4637C13.665 16.3153 13.8 16.0301 13.8 15.737C13.8 15.444 13.6688 15.1588 13.4213 15.0103L12.8963 14.6939C12.6675 14.5571 12.5513 14.2836 12.6263 14.0219C12.75 13.6077 12.915 13.2014 13.1325 12.8107C13.35 12.42 13.6012 12.0645 13.8863 11.748C14.0662 11.5487 14.3512 11.5175 14.58 11.6542L15.09 11.959C15.345 12.1113 15.66 12.0879 15.915 11.9355C16.1737 11.7832 16.3538 11.5058 16.3538 11.1971V10.5251H16.35ZM19.8037 15.741C19.8149 15.4872 19.7765 15.2338 19.691 14.9959C19.6054 14.7581 19.4745 14.5407 19.3061 14.3571C19.1377 14.1734 18.9353 14.0272 18.7111 13.9274C18.4869 13.8275 18.2457 13.776 18.0019 13.776C17.7581 13.776 17.5168 13.8275 17.2927 13.9274C17.0685 14.0272 16.8661 14.1734 16.6977 14.3571C16.5293 14.5407 16.3983 14.7581 16.3128 14.9959C16.2273 15.2338 16.1889 15.4872 16.2 15.741C16.1889 15.9947 16.2273 16.2481 16.3128 16.486C16.3983 16.7238 16.5293 16.9412 16.6977 17.1248C16.8661 17.3085 17.0685 17.4547 17.2927 17.5545C17.5168 17.6544 17.7581 17.7059 18.0019 17.7059C18.2457 17.7059 18.4869 17.6544 18.7111 17.5545C18.9353 17.4547 19.1377 17.3085 19.3061 17.1248C19.4745 16.9412 19.6054 16.7238 19.691 16.486C19.7765 16.2481 19.8149 15.9947 19.8037 15.741Z" fill="#505050"/>
</svg>
