<svg width="30" height="24" viewBox="0 0 30 24" fill="none" xmlns="http://www.w3.org/2000/svg">
<g clip-path="url(#clip0_422_17)">
<path d="M10.5 0C12.0913 0 13.6174 0.632141 14.7426 1.75736C15.8679 2.88258 16.5 4.4087 16.5 6C16.5 7.5913 15.8679 9.11742 14.7426 10.2426C13.6174 11.3679 12.0913 12 10.5 12C8.9087 12 7.38258 11.3679 6.25736 10.2426C5.13214 9.11742 4.5 7.5913 4.5 6C4.5 4.4087 5.13214 2.88258 6.25736 1.75736C7.38258 0.632141 8.9087 0 10.5 0ZM8.35781 14.25H12.6422C13.1953 14.25 13.7391 14.3062 14.2594 14.4047C14.1609 15.2719 14.6063 16.0734 15.2812 16.5047C14.5031 17.0016 14.0297 17.9859 14.3438 19.0031C14.5312 19.6078 14.7844 20.1984 15.1125 20.7656C15.4406 21.3328 15.825 21.8484 16.2562 22.3125C16.9922 23.1047 18.1125 23.175 18.9375 22.7203V22.7625C18.9375 23.1938 19.0641 23.6297 19.3078 23.9953H1.39219C0.623438 24 0 23.3766 0 22.6078C0 17.9906 3.74063 14.25 8.35781 14.25ZM20.4375 10.2281C20.4375 9.9 20.6484 9.60469 20.9672 9.53437C21.4594 9.42187 21.975 9.36094 22.5 9.36094C23.025 9.36094 23.5406 9.42187 24.0328 9.53437C24.3516 9.60469 24.5625 9.9 24.5625 10.2281V11.0578C24.5625 11.4234 24.7875 11.7516 25.1062 11.9344C25.425 12.1172 25.8141 12.1453 26.1281 11.9625L26.775 11.5922C27.0609 11.4281 27.4172 11.4656 27.6422 11.7047C27.9984 12.0844 28.3125 12.5109 28.5844 12.9797C28.8562 13.4484 29.0672 13.9359 29.2172 14.4328C29.3156 14.7469 29.1656 15.075 28.8797 15.2391L28.2047 15.6281C27.9 15.8016 27.7359 16.1391 27.7359 16.4906C27.7359 16.8422 27.9 17.1797 28.2047 17.3531L28.8797 17.7422C29.1656 17.9062 29.3109 18.2344 29.2172 18.5484C29.0625 19.0453 28.8516 19.5328 28.5844 20.0016C28.3172 20.4703 27.9984 20.8969 27.6422 21.2766C27.4172 21.5156 27.0563 21.5531 26.775 21.3891L26.1281 21.0187C25.8141 20.8359 25.4203 20.8641 25.1062 21.0469C24.7875 21.2297 24.5625 21.5578 24.5625 21.9234V22.7531C24.5625 23.0812 24.3516 23.3766 24.0328 23.4469C23.5406 23.5594 23.025 23.6203 22.5 23.6203C21.975 23.6203 21.4594 23.5594 20.9672 23.4469C20.6484 23.3766 20.4375 23.0812 20.4375 22.7531V21.9281C20.4375 21.5578 20.2078 21.2297 19.8891 21.0422C19.5703 20.8594 19.1766 20.8312 18.8578 21.0141L18.225 21.3797C17.9391 21.5438 17.5828 21.5063 17.3578 21.2672C17.0016 20.8875 16.6875 20.4609 16.4156 19.9922C16.1438 19.5234 15.9328 19.0359 15.7828 18.5391C15.6844 18.225 15.8344 17.8969 16.1203 17.7328L16.7766 17.3531C17.0812 17.175 17.25 16.8328 17.25 16.4813C17.25 16.1297 17.0859 15.7875 16.7766 15.6094L16.1203 15.2297C15.8344 15.0656 15.6891 14.7375 15.7828 14.4234C15.9375 13.9266 16.1438 13.4391 16.4156 12.9703C16.6875 12.5016 17.0016 12.075 17.3578 11.6953C17.5828 11.4563 17.9391 11.4188 18.225 11.5828L18.8625 11.9484C19.1812 12.1312 19.575 12.1031 19.8937 11.9203C20.2172 11.7375 20.4422 11.4047 20.4422 11.0344V10.2281H20.4375ZM24.7547 16.4859C24.7686 16.1815 24.7206 15.8774 24.6137 15.5921C24.5068 15.3067 24.3431 15.046 24.1326 14.8256C23.9221 14.6053 23.6691 14.4299 23.3889 14.3101C23.1087 14.1902 22.8071 14.1285 22.5023 14.1285C22.1976 14.1285 21.896 14.1902 21.6158 14.3101C21.3356 14.4299 21.0826 14.6053 20.8721 14.8256C20.6616 15.046 20.4979 15.3067 20.391 15.5921C20.2841 15.8774 20.2361 16.1815 20.25 16.4859C20.2361 16.7904 20.2841 17.0944 20.391 17.3798C20.4979 17.6652 20.6616 17.9259 20.8721 18.1463C21.0826 18.3666 21.3356 18.542 21.6158 18.6618C21.896 18.7816 22.1976 18.8434 22.5023 18.8434C22.8071 18.8434 23.1087 18.7816 23.3889 18.6618C23.6691 18.542 23.9221 18.3666 24.1326 18.1463C24.3431 17.9259 24.5068 17.6652 24.6137 17.3798C24.7206 17.0944 24.7686 16.7904 24.7547 16.4859Z" fill="#505050"/>
</g>
<defs>
<clipPath id="clip0_422_17">
<rect width="30" height="24" fill="white"/>
</clipPath>
</defs>
</svg>
