<svg width="31" height="24" viewBox="0 0 31 24" fill="none" xmlns="http://www.w3.org/2000/svg">
<g clip-path="url(#clip0_422_13)">
<path d="M11.22 12C12.8113 12 14.3374 11.3679 15.4626 10.2426C16.5878 9.11742 17.22 7.5913 17.22 6C17.22 4.4087 16.5878 2.88258 15.4626 1.75736C14.3374 0.632141 12.8113 0 11.22 0C9.62867 0 8.10255 0.632141 6.97733 1.75736C5.85211 2.88258 5.21997 4.4087 5.21997 6C5.21997 7.5913 5.85211 9.11742 6.97733 10.2426C8.10255 11.3679 9.62867 12 11.22 12ZM9.07778 14.25C4.4606 14.25 0.719971 17.9906 0.719971 22.6078C0.719971 23.3766 1.34341 24 2.11216 24H19.1231C18.87 23.5594 18.72 23.0484 18.72 22.5V16.5C18.72 16.4016 18.7247 16.3031 18.734 16.2047C17.2809 14.9859 15.4059 14.25 13.3622 14.25H9.07778ZM25.47 11.25C26.2997 11.25 26.97 11.9203 26.97 12.75V15H23.97V12.75C23.97 11.9203 24.6403 11.25 25.47 11.25ZM21.72 12.75V15C20.8903 15 20.22 15.6703 20.22 16.5V22.5C20.22 23.3297 20.8903 24 21.72 24H29.22C30.0497 24 30.72 23.3297 30.72 22.5V16.5C30.72 15.6703 30.0497 15 29.22 15V12.75C29.22 10.6781 27.5418 9 25.47 9C23.3981 9 21.72 10.6781 21.72 12.75Z" fill="#505050"/>
</g>
<defs>
<clipPath id="clip0_422_13">
<rect width="30" height="24" fill="white" transform="translate(0.719971)"/>
</clipPath>
</defs>
</svg>
