<svg width="24" height="24" viewBox="0 0 24 24" fill="none" xmlns="http://www.w3.org/2000/svg">
<path d="M21.9184 11.3804C21.8885 11.3151 21.1822 9.74682 19.622 8.18659C17.5344 6.10224 14.9034 5 12.0006 5C9.09784 5 6.46681 6.10224 4.38166 8.18659C2.82143 9.74682 2.11509 11.3151 2.08284 11.3804C2.02821 11.5043 2 11.6382 2 11.7735C2 11.9089 2.02821 12.0427 2.08284 12.1666C2.11267 12.2327 2.81901 13.8002 4.38005 15.3604C6.46681 17.4448 9.09784 18.5462 12.0006 18.5462C14.9034 18.5462 17.5344 17.4448 19.6187 15.3604C21.1798 13.8002 21.8861 12.2327 21.9159 12.1666C21.971 12.0429 21.9996 11.9091 22 11.7738C22.0004 11.6384 21.9726 11.5044 21.9184 11.3804ZM18.2044 14.0413C16.4733 15.7459 14.3865 16.611 12.0006 16.611C9.61469 16.611 7.52793 15.7459 5.79918 14.0405C5.11895 13.3674 4.5338 12.6045 4.05994 11.7731C4.53395 10.942 5.11908 10.1795 5.79918 9.50653C7.52874 7.80036 9.61469 6.93517 12.0006 6.93517C14.3865 6.93517 16.4725 7.80036 18.202 9.50653C18.8822 10.1794 19.4673 10.942 19.9413 11.7731C19.4673 12.6045 18.8822 13.3673 18.202 14.0405L18.2044 14.0413ZM12.0006 8.22529C11.2989 8.22529 10.613 8.43336 10.0295 8.8232C9.4461 9.21304 8.99137 9.76714 8.72285 10.4154C8.45432 11.0637 8.38406 11.777 8.52096 12.4653C8.65785 13.1535 8.99574 13.7856 9.49192 14.2818C9.98809 14.778 10.6202 15.1159 11.3085 15.2528C11.9967 15.3896 12.71 15.3194 13.3583 15.0509C14.0066 14.7823 14.5607 14.3276 14.9505 13.7442C15.3403 13.1607 15.5484 12.4748 15.5484 11.7731C15.5474 10.8325 15.1732 9.93071 14.5081 9.2656C13.843 8.60049 12.9412 8.22636 12.0006 8.22529ZM12.0006 13.3858C11.6817 13.3858 11.3699 13.2912 11.1047 13.114C10.8395 12.9368 10.6328 12.6849 10.5107 12.3902C10.3887 12.0956 10.3567 11.7713 10.4189 11.4585C10.4812 11.1457 10.6348 10.8583 10.8603 10.6328C11.0858 10.4073 11.3732 10.2537 11.686 10.1914C11.9988 10.1292 12.3231 10.1612 12.6177 10.2832C12.9124 10.4053 13.1643 10.612 13.3415 10.8772C13.5187 11.1424 13.6132 11.4542 13.6132 11.7731C13.6132 12.2008 13.4433 12.611 13.1409 12.9134C12.8385 13.2158 12.4283 13.3858 12.0006 13.3858Z" fill="#505050"/>
</svg>
