<svg width="150" height="150" viewBox="0 0 150 150" fill="none" xmlns="http://www.w3.org/2000/svg">
<path d="M146.96 35.1972L77.6213 0.636183C76.767 0.217611 75.8283 0 74.877 0C73.9257 0 72.987 0.217611 72.1327 0.636183L2.79448 35.1972C1.9683 35.5342 1.26125 36.1097 0.763531 36.8503C0.265814 37.5908 0 38.4629 0 39.3552C0 40.2474 0.265814 41.1195 0.763531 41.8601C1.26125 42.6006 1.9683 43.1761 2.79448 43.5131L72.1327 78.0409C72.9877 78.4571 73.9261 78.6733 74.877 78.6733C75.8279 78.6733 76.7663 78.4571 77.6213 78.0409L107.076 63.3716L75.4757 42.6982C74.5772 42.1099 73.8924 41.2474 73.5231 40.2389C73.1539 39.2303 73.12 38.1296 73.4264 37.1002C73.7327 36.0708 74.3631 35.1678 75.2237 34.5253C76.0844 33.8828 77.1294 33.5351 78.2034 33.534C79.1724 33.535 80.1202 33.8182 80.931 34.349L115.858 57.2012C116.324 57.5205 116.73 57.9204 117.055 58.382L146.993 43.4133C147.819 43.0763 148.526 42.5008 149.024 41.7603C149.521 41.0197 149.787 40.1477 149.787 39.2554C149.787 38.3631 149.521 37.4911 149.024 36.7505C148.526 36.0099 147.819 35.4344 146.993 35.0974L146.96 35.1972Z" fill="url(#paint0_linear_12_48)"/>
<path d="M114.793 108.261V61.3758C114.795 61.099 114.727 60.8263 114.596 60.5823C114.466 60.3384 114.276 60.1309 114.045 59.9787L79.1181 37.1265C78.7504 36.9505 78.3309 36.9157 77.9392 37.0286C77.5475 37.1416 77.211 37.3944 76.9935 37.7392C76.7759 38.0839 76.6926 38.4966 76.7593 38.8987C76.826 39.3009 77.038 39.6645 77.3551 39.9206L111.467 62.2739V108.261C109.332 108.632 107.376 109.689 105.894 111.271C104.413 112.852 103.486 114.874 103.255 117.028C103.024 119.183 103.501 121.355 104.613 123.215C105.726 125.075 107.413 126.522 109.421 127.338C110.597 127.824 111.858 128.073 113.13 128.07C114.396 128.072 115.65 127.829 116.823 127.354C118.838 126.544 120.534 125.099 121.653 123.238C122.772 121.376 123.253 119.201 123.024 117.041C122.794 114.881 121.866 112.855 120.381 111.271C118.896 109.686 116.934 108.629 114.793 108.261Z" fill="url(#paint1_linear_12_48)"/>
<path d="M119.267 129.849C118.868 130.049 118.469 130.265 118.053 130.431C116.492 131.075 114.819 131.402 113.13 131.396C111.419 131.399 109.724 131.065 108.141 130.415C107.742 130.248 107.376 130.049 106.993 129.849L103.268 139.296C103.149 139.596 103.121 139.924 103.186 140.24C103.251 140.556 103.406 140.846 103.633 141.076L111.949 149.508C112.104 149.664 112.288 149.788 112.491 149.872C112.693 149.956 112.911 150 113.13 150C113.35 150 113.567 149.956 113.77 149.872C113.973 149.788 114.157 149.664 114.311 149.508L122.627 141.076C122.854 140.846 123.01 140.556 123.074 140.24C123.139 139.924 123.111 139.596 122.993 139.296L119.267 129.849Z" fill="url(#paint2_linear_12_48)"/>
<path d="M108.141 66.5317L79.1181 81.0015C77.8006 81.6577 76.3489 81.9993 74.877 81.9994C73.4115 82.0068 71.9647 81.6707 70.6525 81.0181L21.655 56.5526V79.8372C21.6332 81.3096 22.0116 82.7603 22.7497 84.0345C23.4879 85.3087 24.5581 86.3586 25.8462 87.0721L69.2554 111.837C71.0175 112.819 73.0012 113.334 75.0184 113.334C77.0355 113.334 79.0192 112.819 80.7813 111.837L108.141 96.1531V66.5317Z" fill="url(#paint3_linear_12_48)"/>
<path d="M118.12 90.4317L123.958 87.1054C125.251 86.394 126.323 85.3385 127.054 84.0557C127.785 82.7729 128.147 81.3129 128.099 79.8372V56.5526L118.12 61.5422V90.4317Z" fill="url(#paint4_linear_12_48)"/>
<defs>
<linearGradient id="paint0_linear_12_48" x1="74.8936" y1="0" x2="74.8936" y2="78.6733" gradientUnits="userSpaceOnUse">
<stop stop-color="#3898DE"/>
<stop offset="1" stop-color="#00D1FF"/>
</linearGradient>
<linearGradient id="paint1_linear_12_48" x1="99.9082" y1="36.9635" x2="99.9082" y2="128.07" gradientUnits="userSpaceOnUse">
<stop stop-color="#3898DE"/>
<stop offset="1" stop-color="#00D1FF"/>
</linearGradient>
<linearGradient id="paint2_linear_12_48" x1="113.13" y1="129.849" x2="113.13" y2="150" gradientUnits="userSpaceOnUse">
<stop stop-color="#3898DE"/>
<stop offset="1" stop-color="#00D1FF"/>
</linearGradient>
<linearGradient id="paint3_linear_12_48" x1="64.8974" y1="56.5526" x2="64.8974" y2="113.334" gradientUnits="userSpaceOnUse">
<stop stop-color="#3898DE"/>
<stop offset="1" stop-color="#00D1FF"/>
</linearGradient>
<linearGradient id="paint4_linear_12_48" x1="123.112" y1="56.5526" x2="123.112" y2="90.4317" gradientUnits="userSpaceOnUse">
<stop stop-color="#3898DE"/>
<stop offset="1" stop-color="#00D1FF"/>
</linearGradient>
</defs>
</svg>
